<svg width="53" height="57" viewBox="0 0 53 57" fill="none" xmlns="http://www.w3.org/2000/svg">
<g clip-path="url(#clip0_7_218)">
<path d="M33.9 7.20006C21.1 8.70006 11.9 20.1001 13.1 33.0001C14.3 45.8001 25.8 55.1001 38.5 53.7001C41.5 53.3001 44.2 52.5001 47 51.0001C45.4 49.9001 44 48.7001 42.7 47.3001C38.2 43.1001 35.1 37.7001 34.1 31.6001C33 24.2001 35 17.1001 37.3 12.2001C38.1 10.6001 38.9 8.80006 39.9 7.30006C38 7.00006 36 7.00006 33.9 7.20006Z" fill="#E7D279"/>
<path d="M33.9 7.20006C21.1 8.70006 11.9 20.1001 13.1 33.0001C14.3 45.8001 25.8 55.1001 38.5 53.7001C41.5 53.3001 44.2 52.5001 47 51.0001C45.4 49.9001 44 48.7001 42.7 47.3001C38.2 43.1001 35.1 37.7001 34.1 31.6001C33 24.2001 35 17.1001 37.3 12.2001C38.1 10.6001 38.9 8.80006 39.9 7.30006C38 7.00006 36 7.00006 33.9 7.20006Z" stroke="white" stroke-width="3" stroke-miterlimit="10"/>
</g>
<defs>
<clipPath id="clip0_7_218">
<rect width="52.1" height="56.2" fill="white" transform="translate(0 0.5)"/>
</clipPath>
</defs>
</svg>
