<svg width="85" height="45" viewBox="0 0 85 45" fill="none" xmlns="http://www.w3.org/2000/svg">
<g clip-path="url(#clip0_7_223)">
<path d="M61.52 43.06H9.41999C7.23999 43.06 4.33999 41.34 3.50999 39.47C2.60082 38.0576 2.08369 36.4288 2.01165 34.7506C1.9396 33.0724 2.31522 31.4052 3.09999 29.92C4.01591 28.2718 5.38834 26.9232 7.05232 26.0362C8.7163 25.1492 10.601 24.7616 12.48 24.92C14.05 25 14.37 24.43 14.57 23.12C15.3736 18.1831 17.7059 13.6227 21.2383 10.0814C24.7707 6.53999 29.3251 4.19615 34.26 3.38004H34.38C39.9446 2.59892 45.6068 3.79507 50.38 6.76004C50.85 7.05004 51.32 7.36004 51.78 7.76004C54.405 9.73932 56.6024 12.2293 58.24 15.08L59 16.28" fill="#89C1EB"/>
<path d="M36.7 29.91C36.9998 27.789 37.9523 25.8139 39.4252 24.2585C40.8981 22.7032 42.8184 21.6448 44.92 21.23C45.582 21.1301 46.2505 21.0799 46.92 21.08C49.5792 21.0792 52.143 22.0705 54.11 23.86C55.4978 25.1465 56.4988 26.7951 57 28.62" fill="#89C1EB"/>
<path d="M50.77 21.7199C53.77 17.0799 60.72 15.3699 66.26 16.5099C68.6962 16.9599 70.9452 18.1197 72.7243 19.8437C74.5035 21.5678 75.7336 23.7791 76.26 26.1999C76.96 29.2499 77.19 30.4199 79.55 32.0499C82.91 34.3799 82.67 39.5899 79.95 42.0499C79.2199 42.6652 78.3042 43.0174 77.35 43.0499H59.35" fill="#89C1EB"/>
<path d="M61.52 42.44H9.41999C7.23999 42.44 4.33999 40.72 3.50999 38.86C2.60093 37.4456 2.08393 35.8152 2.01189 34.1354C1.93985 32.4557 2.31536 30.787 3.09999 29.3C4.01591 27.6517 5.38834 26.3031 7.05232 25.4161C8.7163 24.5291 10.601 24.1416 12.48 24.3C14.05 24.38 14.37 23.81 14.57 22.51C15.3717 17.5712 17.7031 13.0086 21.2357 9.46531C24.7682 5.922 29.3237 3.57669 34.26 2.75998H34.38C39.9443 1.98573 45.6042 3.18139 50.38 6.13998C50.85 6.42998 51.32 6.74998 51.78 7.13998C54.4028 9.12169 56.5998 11.6111 58.24 14.46L59 15.66" stroke="white" stroke-width="4" stroke-miterlimit="10"/>
<path d="M36.7 29.2899C37.0004 27.1702 37.9532 25.1966 39.4262 23.6429C40.8991 22.0893 42.8193 21.0328 44.92 20.6199C45.6087 20.5211 46.3045 20.4809 47 20.4999C49.6612 20.498 52.2266 21.4935 54.19 23.2899C55.544 24.57 56.5166 26.2004 57 27.9999" stroke="white" stroke-width="4" stroke-miterlimit="10"/>
<path d="M50.77 21.11C53.77 16.46 60.72 14.75 66.26 15.89C68.6957 16.3412 70.944 17.5014 72.7229 19.2252C74.5019 20.949 75.7324 23.1597 76.26 25.58C76.96 28.64 77.19 29.8 79.55 31.44C82.91 33.76 82.67 38.97 79.95 41.44C79.2199 42.0553 78.3042 42.4074 77.35 42.44H74" stroke="white" stroke-width="4" stroke-miterlimit="10"/>
<path d="M65.18 42.4299H70.57" stroke="white" stroke-width="4" stroke-miterlimit="10"/>
</g>
<defs>
<clipPath id="clip0_7_223">
<rect width="84.06" height="43.94" fill="white" transform="translate(0 0.5)"/>
</clipPath>
</defs>
</svg>
