<svg width="80" height="83" viewBox="0 0 80 83" fill="none" xmlns="http://www.w3.org/2000/svg">
<g clip-path="url(#clip0_7_240)">
<path d="M18.82 63.9701C23.1057 63.9701 26.58 60.4958 26.58 56.2101C26.58 51.9243 23.1057 48.4501 18.82 48.4501C14.5343 48.4501 11.06 51.9243 11.06 56.2101C11.06 60.4958 14.5343 63.9701 18.82 63.9701Z" fill="#89C1EB"/>
<path d="M39.06 63.9701C43.3457 63.9701 46.82 60.4958 46.82 56.2101C46.82 51.9243 43.3457 48.4501 39.06 48.4501C34.7743 48.4501 31.3 51.9243 31.3 56.2101C31.3 60.4958 34.7743 63.9701 39.06 63.9701Z" fill="#89C1EB"/>
<path d="M59.85 63.9701C64.1357 63.9701 67.61 60.4958 67.61 56.2101C67.61 51.9243 64.1357 48.4501 59.85 48.4501C55.5643 48.4501 52.09 51.9243 52.09 56.2101C52.09 60.4958 55.5643 63.9701 59.85 63.9701Z" fill="#89C1EB"/>
<path d="M29.18 80.4901C32.2949 80.4901 34.82 77.965 34.82 74.8501C34.82 71.7352 32.2949 69.2101 29.18 69.2101C26.0651 69.2101 23.54 71.7352 23.54 74.8501C23.54 77.965 26.0651 80.4901 29.18 80.4901Z" fill="#89C1EB"/>
<path d="M47.29 80.4901C50.4049 80.4901 52.93 77.965 52.93 74.8501C52.93 71.7352 50.4049 69.2101 47.29 69.2101C44.1751 69.2101 41.65 71.7352 41.65 74.8501C41.65 77.965 44.1751 80.4901 47.29 80.4901Z" fill="#89C1EB"/>
<path d="M58.62 40.59H9.71C8.57542 40.5234 7.47493 40.1773 6.50657 39.5823C5.53822 38.9873 4.73209 38.162 4.16 37.18C3.24015 35.7594 2.73948 34.1083 2.71545 32.416C2.69143 30.7238 3.14503 29.0591 4.02419 27.613C4.90335 26.1669 6.17243 24.9979 7.68579 24.2404C9.19915 23.4828 10.8955 23.1672 12.58 23.33C14.05 23.41 14.36 22.86 14.58 21.62C15.3009 16.9515 17.4647 12.6256 20.768 9.24875C24.0713 5.87193 28.3485 3.61347 33 2.78999H33.11C38.3333 2.059 43.6469 3.19964 48.11 6.00999C48.55 6.28999 48.99 6.58999 49.42 6.91999C51.8953 8.81944 53.9602 11.2007 55.49 13.92L56.2 15.13" fill="#89C1EB"/>
<path d="M35.31 28.0701C35.578 26.0651 36.4617 24.1928 37.8391 22.7115C39.2165 21.2301 41.0198 20.2129 43 19.8001C43.6312 19.6967 44.2704 19.6498 44.91 19.6601C47.414 19.6589 49.8256 20.6057 51.66 22.3101C52.9564 23.5405 53.8814 25.11 54.33 26.8401" fill="#89C1EB"/>
<path d="M48.52 20.2701C51.35 15.8401 57.86 14.2101 63.06 15.2701C65.3645 15.7077 67.4879 16.8178 69.1625 18.4603C70.8371 20.1029 71.9879 22.2044 72.47 24.5001C73.14 27.4101 73.35 28.5001 75.56 30.0801C78.72 32.3001 78.5 37.2601 75.94 39.6001C75.2666 40.2052 74.4044 40.5585 73.5 40.6001H56.58" fill="#89C1EB"/>
<path d="M18.82 63.9701C23.1057 63.9701 26.58 60.4958 26.58 56.2101C26.58 51.9243 23.1057 48.4501 18.82 48.4501C14.5343 48.4501 11.06 51.9243 11.06 56.2101C11.06 60.4958 14.5343 63.9701 18.82 63.9701Z" stroke="white" stroke-width="3.5" stroke-miterlimit="10"/>
<path d="M39.06 63.9701C43.3457 63.9701 46.82 60.4958 46.82 56.2101C46.82 51.9243 43.3457 48.4501 39.06 48.4501C34.7743 48.4501 31.3 51.9243 31.3 56.2101C31.3 60.4958 34.7743 63.9701 39.06 63.9701Z" stroke="white" stroke-width="3.5" stroke-miterlimit="10"/>
<path d="M59.85 63.9701C64.1357 63.9701 67.61 60.4958 67.61 56.2101C67.61 51.9243 64.1357 48.4501 59.85 48.4501C55.5643 48.4501 52.09 51.9243 52.09 56.2101C52.09 60.4958 55.5643 63.9701 59.85 63.9701Z" stroke="white" stroke-width="3.5" stroke-miterlimit="10"/>
<path d="M29.18 80.4901C32.2949 80.4901 34.82 77.965 34.82 74.8501C34.82 71.7352 32.2949 69.2101 29.18 69.2101C26.0651 69.2101 23.54 71.7352 23.54 74.8501C23.54 77.965 26.0651 80.4901 29.18 80.4901Z" stroke="white" stroke-width="3.5" stroke-miterlimit="10"/>
<path d="M47.29 80.4901C50.4049 80.4901 52.93 77.965 52.93 74.8501C52.93 71.7352 50.4049 69.2101 47.29 69.2101C44.1751 69.2101 41.65 71.7352 41.65 74.8501C41.65 77.965 44.1751 80.4901 47.29 80.4901Z" stroke="white" stroke-width="3.5" stroke-miterlimit="10"/>
<path d="M58.22 40.22H9C7.86364 40.1536 6.76063 39.8111 5.78655 39.2221C4.81247 38.6331 3.99672 37.8155 3.41 36.84C2.56154 35.5055 2.0797 33.971 2.01299 32.391C1.94628 30.811 2.29706 29.2413 3.03 27.84C3.89717 26.2858 5.19432 25.0147 6.76585 24.1793C8.33739 23.3439 10.1166 22.9795 11.89 23.13C13.37 23.21 13.68 22.67 13.89 21.44C14.6411 16.771 16.838 12.4552 20.1711 9.1005C23.5043 5.74579 27.8059 3.52121 32.47 2.74005H32.59C37.8305 2.01057 43.1611 3.13541 47.66 5.92005C48.1 6.19338 48.54 6.49338 48.98 6.82005C51.4575 8.69241 53.535 11.0419 55.09 13.73L55.8 14.93" stroke="white" stroke-width="4" stroke-miterlimit="10"/>
<path d="M34.77 27.81C35.0508 25.8046 35.9503 23.9368 37.3431 22.467C38.7359 20.9971 40.5526 19.9984 42.54 19.61C43.1755 19.5163 43.818 19.4795 44.46 19.5C46.9712 19.4944 49.3935 20.4291 51.25 22.12C52.542 23.3413 53.4727 24.8947 53.94 26.61" stroke="white" stroke-width="4" stroke-miterlimit="10"/>
<path d="M48.06 20.0701C50.91 15.6901 57.46 14.0701 62.69 15.1501C64.9965 15.5676 67.1273 16.6598 68.813 18.2885C70.4986 19.9173 71.6634 22.0093 72.16 24.3001C72.83 27.1901 73.04 28.3001 75.27 29.8301C78.45 32.0301 78.27 36.9501 75.66 39.2701C74.9683 39.8578 74.0973 40.1928 73.19 40.2201H70" stroke="white" stroke-width="4" stroke-miterlimit="10"/>
<path d="M61.67 40.2201H66.77" stroke="white" stroke-width="4" stroke-miterlimit="10"/>
</g>
<defs>
<clipPath id="clip0_7_240">
<rect width="79.62" height="81.74" fill="white" transform="translate(0 0.5)"/>
</clipPath>
</defs>
</svg>
