<svg width="114" height="80" viewBox="0 0 114 80" fill="none" xmlns="http://www.w3.org/2000/svg">
<g clip-path="url(#clip0_7_261)">
<path d="M40.4 16.38C35.4941 16.378 30.6979 17.8311 26.6181 20.5554C22.5382 23.2797 19.358 27.1528 17.4797 31.6848C15.6014 36.2169 15.1094 41.2041 16.066 46.0158C17.0226 50.8275 19.3848 55.2473 22.8537 58.7163C26.3227 62.1852 30.7425 64.5474 35.5542 65.504C40.3658 66.4606 45.3531 65.9686 49.8851 64.0903C54.4172 62.212 58.2903 59.0318 61.0146 54.9519C63.7389 50.872 65.192 46.0758 65.19 41.17C65.182 34.5977 62.5677 28.2969 57.9204 23.6496C53.2731 19.0023 46.9723 16.3879 40.4 16.38Z" fill="#F4B13E"/>
<path d="M91 77.5001H38.92C36.73 77.5001 33.83 75.7801 33 73.9201C32.0925 72.5048 31.5772 70.8739 31.507 69.1942C31.4367 67.5144 31.8139 65.8462 32.6 64.3601C33.5142 62.7126 34.8849 61.3644 36.5472 60.4774C38.2094 59.5903 40.0925 59.2024 41.97 59.3601C43.54 59.4401 43.87 58.8601 44.06 57.5601C44.8627 52.6181 47.1953 48.0523 50.7294 44.5057C54.2634 40.9591 58.8209 38.6103 63.76 37.7901H63.88C69.4457 37.0119 75.1081 38.2116 79.88 41.1801C80.34 41.4601 80.81 41.7801 81.27 42.1201C83.8932 44.1042 86.0931 46.593 87.74 49.4401L88.49 50.7101" fill="#89C1EB"/>
<path d="M66.19 64.32C66.4905 62.1976 67.4444 60.2215 68.9192 58.666C70.394 57.1106 72.3166 56.0529 74.42 55.64C75.0808 55.5298 75.7502 55.4796 76.42 55.49C79.0803 55.4834 81.6461 56.4755 83.61 58.27C84.9847 59.5546 85.969 61.201 86.45 63.02" fill="#89C1EB"/>
<path d="M80.26 56.13C83.26 51.48 90.21 49.77 95.75 50.91C98.1857 51.3612 100.434 52.5214 102.213 54.2452C103.992 55.9691 105.222 58.1797 105.75 60.6C106.46 63.66 106.68 64.82 109.04 66.46C112.4 68.79 112.17 73.99 109.45 76.46C108.72 77.0822 107.799 77.4352 106.84 77.46H88.84" fill="#89C1EB"/>
<path d="M63.22 31.5C61.7223 27.8374 59.3697 24.5865 56.3586 22.0191C53.3476 19.4518 49.7658 17.6425 45.9125 16.7425C42.0593 15.8425 38.0465 15.878 34.2098 16.846C30.373 17.814 26.8238 19.6864 23.8587 22.3067C20.8935 24.9269 18.5987 28.2189 17.1661 31.9074C15.7335 35.5959 15.2046 39.5738 15.6237 43.5085C16.0428 47.4432 17.3978 51.2205 19.5752 54.5244C21.7527 57.8284 24.6895 60.5631 28.14 62.5" stroke="white" stroke-width="4" stroke-miterlimit="10"/>
<path d="M40.21 16.01V2.5" stroke="white" stroke-width="4" stroke-miterlimit="10" stroke-linecap="square"/>
<path d="M15.51 40.97H2" stroke="white" stroke-width="4" stroke-miterlimit="10" stroke-linecap="square"/>
<path d="M22.7 23.3799L13.14 13.8199" stroke="white" stroke-width="4" stroke-miterlimit="10" stroke-linecap="square"/>
<path d="M57.81 23.2L67.36 13.64" stroke="white" stroke-width="4" stroke-miterlimit="10" stroke-linecap="square"/>
<path d="M22.88 58.49L13.32 68.04" stroke="white" stroke-width="4" stroke-miterlimit="10" stroke-linecap="square"/>
<path d="M91 77.5001H38.92C36.73 77.5001 33.83 75.7801 33 73.9201C32.0925 72.5048 31.5772 70.8739 31.507 69.1942C31.4367 67.5144 31.8139 65.8462 32.6 64.3601C33.5142 62.7126 34.8849 61.3644 36.5472 60.4774C38.2094 59.5903 40.0925 59.2024 41.97 59.3601C43.54 59.4401 43.87 58.8601 44.06 57.5601C44.8627 52.6181 47.1953 48.0523 50.7294 44.5057C54.2634 40.9591 58.8209 38.6103 63.76 37.7901H63.88C69.4457 37.0119 75.1081 38.2116 79.88 41.1801C80.34 41.4601 80.81 41.7801 81.27 42.1201C83.8932 44.1042 86.0931 46.593 87.74 49.4401L88.49 50.7101" stroke="white" stroke-width="4" stroke-miterlimit="10"/>
<path d="M66.19 64.32C66.4905 62.1976 67.4444 60.2215 68.9192 58.666C70.394 57.1106 72.3166 56.0529 74.42 55.64C75.0808 55.5298 75.7502 55.4796 76.42 55.49C79.0803 55.4834 81.6461 56.4755 83.61 58.27C84.9847 59.5546 85.969 61.201 86.45 63.02" stroke="white" stroke-width="4" stroke-miterlimit="10"/>
<path d="M80.26 56.13C83.26 51.48 90.21 49.77 95.75 50.91C98.1857 51.3612 100.434 52.5214 102.213 54.2452C103.992 55.9691 105.222 58.1797 105.75 60.6C106.46 63.66 106.68 64.82 109.04 66.46C112.4 68.79 112.17 73.99 109.45 76.46C108.72 77.0822 107.799 77.4352 106.84 77.46H103.48" stroke="white" stroke-width="4" stroke-miterlimit="10"/>
<path d="M94.67 77.45H100.07" stroke="white" stroke-width="4" stroke-miterlimit="10"/>
</g>
<defs>
<clipPath id="clip0_7_261">
<rect width="113.56" height="78.96" fill="white" transform="translate(0 0.5)"/>
</clipPath>
</defs>
</svg>
