<svg width="102" height="64" viewBox="0 0 102 64" fill="none" xmlns="http://www.w3.org/2000/svg">
<g clip-path="url(#clip0_7_279)">
<path d="M22.9 4.9C10.1 6.4 0.900002 17.8 2.1 30.7C3.4 43.5 14.8 52.7 27.5 51.4C30.5 51 33.2 50.2 36 48.7C34.4 47.6 33 46.4 31.7 45C27.2 40.8 24.1 35.4 23.1 29.3C22 21.9 24 14.8 26.3 9.9C27.1 8.3 27.9 6.5 28.9 5C27 4.6 24.9 4.6 22.9 4.9Z" fill="#E7D279"/>
<path d="M22.9 4.9C10.1 6.4 0.900002 17.8 2.1 30.7C3.4 43.5 14.8 52.7 27.5 51.4C30.5 51 33.2 50.2 36 48.7C34.4 47.6 33 46.4 31.7 45C27.2 40.8 24.1 35.4 23.1 29.3C22 21.9 24 14.8 26.3 9.9C27.1 8.3 27.9 6.5 28.9 5C27 4.6 24.9 4.6 22.9 4.9Z" stroke="white" stroke-width="3" stroke-miterlimit="10"/>
<path d="M78.7 61.5999H26.6C24.4 61.5999 21.5 59.8999 20.7 57.9999C18.8 55.0999 18.7 51.4999 20.3 48.4C22.2 44.9999 25.8 43.1 29.7 43.4C31.3 43.5 31.6 42.9 31.8 41.6C33.5 31.5 41.4 23.4999 51.5 21.8999H51.6C57.1 21.0999 62.8 22.2999 67.6 25.2999C68.1 25.5999 68.5 25.8999 69 26.1999C71.6 28.1999 73.8 30.6999 75.5 33.4999L76.3 34.7999" fill="#89C1EB"/>
<path d="M53.9 48.5C54.5 44.2 57.8 40.7 62.1 39.8C62.8 39.7 63.4 39.6 64.1 39.6C66.8 39.6 69.3 40.6 71.3 42.4C72.7 43.7 73.7 45.3 74.2 47.2" fill="#89C1EB"/>
<path d="M68 40.3C71 35.7 78 33.9 83.5 35.1C88.5 36 92.4 39.8 93.5 44.8C94.2 47.9 94.4 49 96.8 50.7C100.2 53 99.9 58.2 97.2 60.7C96.5 61.3 95.6 61.7 94.6 61.7H76.6" fill="#89C1EB"/>
<path d="M78.7 61.5H26.6C24.4 61.5 21.5 59.8 20.7 57.9C18.8 55 18.7 51.4 20.3 48.4C22.2 45 25.8 43.1 29.7 43.4C31.3 43.5 31.6 42.9 31.8 41.6C33.4 31.5 41.4 23.5 51.5 21.8H51.6C57.1 21 62.8 22.2 67.6 25.2C68.1 25.5 68.6 25.8 69 26.1C71.6 28.1 73.8 30.6 75.5 33.4L76.3 34.7" stroke="white" stroke-width="4" stroke-miterlimit="10"/>
<path d="M53.9 48.2999C54.5 43.9999 57.8 40.4999 62.1 39.5999C62.8 39.4999 63.4 39.3999 64.1 39.4999C66.8 39.4999 69.3 40.4999 71.3 42.2999C72.7 43.5999 73.7 45.1999 74.2 47.0999" stroke="white" stroke-width="4" stroke-miterlimit="10"/>
<path d="M68 40.2C71 35.6 78 33.9 83.5 35C88.5 35.9 92.4 39.7 93.5 44.7C94.2 47.7 94.4 48.9 96.8 50.6C100.2 52.9 99.9 58.1 97.2 60.6C96.5 61.2 95.6 61.6 94.6 61.6H91.3" stroke="white" stroke-width="4" stroke-miterlimit="10"/>
<path d="M82.4 61.5H87.8" stroke="white" stroke-width="4" stroke-miterlimit="10"/>
</g>
<defs>
<clipPath id="clip0_7_279">
<rect width="101.3" height="63.2" fill="white" transform="translate(0 0.5)"/>
</clipPath>
</defs>
</svg>
