<svg width="96" height="91" viewBox="0 0 96 91" fill="none" xmlns="http://www.w3.org/2000/svg">
<g clip-path="url(#clip0_7_360)">
<path d="M23.3 4.10007C10.5 5.60007 1.30003 17.0001 2.50003 29.9001C3.80003 42.7001 15.2 51.9001 28 50.6001C31 50.2001 33.7 49.4001 36.5 47.9001C34.9 46.8001 33.5 45.6001 32.2 44.2001C27.7 40.0001 24.6 34.6001 23.6 28.5001C22.5 21.1001 24.5 14.0001 26.8 9.10007C27.6 7.50007 28.4 5.70007 29.4 4.20007C27.4 3.80007 25.3 3.80007 23.3 4.10007Z" fill="#E7D279"/>
<path d="M23.3 4.10007C10.5 5.60007 1.30003 17.0001 2.50003 29.9001C3.80003 42.7001 15.2 51.9001 28 50.6001C31 50.2001 33.7 49.4001 36.5 47.9001C34.9 46.8001 33.5 45.6001 32.2 44.2001C27.7 40.0001 24.6 34.6001 23.6 28.5001C22.5 21.1001 24.5 14.0001 26.8 9.10007C27.6 7.50007 28.4 5.70007 29.4 4.20007C27.4 3.80007 25.3 3.80007 23.3 4.10007Z" stroke="white" stroke-width="3" stroke-miterlimit="10"/>
<path d="M74.6 56.9H25.9C23.6 56.8 21.5 55.5 20.4 53.5C17.7 49.3 19 43.7 23.2 41.1C24.9 40 26.8 39.6 28.8 39.7C30.3 39.8 30.6 39.2 30.8 38C32.3 28.4 39.6 20.9 49.2 19.2H49.3C54.5 18.5 59.8 19.6 64.2 22.4C64.6 22.7 65.1 23 65.5 23.3C67.9 25.2 70 27.6 71.5 30.2L72.2 31.4" fill="#89C1EB"/>
<path d="M51.4 44.4001C51.9 40.3001 55 37.0001 59.1 36.2001C59.7 36.1001 60.4 36.1001 61 36.1001C63.5 36.1001 65.9 37.0001 67.7 38.7001C69 39.9001 69.9 41.5001 70.4 43.2001" fill="#89C1EB"/>
<path d="M64.5 37.6C67.3 33.2 73.8 31.6 79 32.6C83.7 33.5 87.4 37.1 88.4 41.8C89.1 44.7 89.3 45.8 91.5 47.4C94.6 49.6 94.4 54.5 91.9 56.9C91.2 57.5 90.4 57.8 89.5 57.9H72.7" fill="#89C1EB"/>
<path d="M30.7 86.1L36.1 80.4L41.4 85.9" stroke="white" stroke-width="2.5" stroke-miterlimit="10"/>
<path d="M41.4 63.9L36 69.6L30.7 64.1" stroke="white" stroke-width="2.5" stroke-miterlimit="10"/>
<path d="M36 61.2001V88.6001" stroke="white" stroke-width="2.5" stroke-miterlimit="10"/>
<path d="M47.2 80.2001L41.6 74.9001L47.1 69.6001" stroke="white" stroke-width="2.5" stroke-miterlimit="10"/>
<path d="M25.1 69.6001L30.7 75.0001L25.2 80.2001" stroke="white" stroke-width="2.5" stroke-miterlimit="10"/>
<path d="M22.4 75H49.7" stroke="white" stroke-width="2.5" stroke-miterlimit="10"/>
<path d="M85.7 79.3L79.5 85.2001" stroke="white" stroke-width="3" stroke-miterlimit="10" stroke-linecap="round"/>
<path d="M64.6 79.3L58.4 85.2001" stroke="white" stroke-width="3" stroke-miterlimit="10" stroke-linecap="round"/>
<path d="M85.7 67.5L79.5 73.4" stroke="white" stroke-width="3" stroke-miterlimit="10" stroke-linecap="round"/>
<path d="M64.6 67.5L58.4 73.4" stroke="white" stroke-width="3" stroke-miterlimit="10" stroke-linecap="round"/>
<path d="M74.5 57.4001H25.3C23 57.3001 20.9 56.0001 19.7 54.0001C18 51.3001 17.8 47.8001 19.3 45.0001C21.1 41.8001 24.5 40.0001 28.1 40.3001C29.6 40.4001 29.9 39.8001 30.1 38.6001C31.6 29.0001 39.1 21.5001 48.7 19.9001H48.8C54 19.2001 59.4 20.3001 63.9 23.1001C64.3 23.4001 64.8 23.7001 65.2 24.0001C67.7 25.9001 69.8 28.2001 71.3 30.9001L72 32.1001" stroke="white" stroke-width="4" stroke-miterlimit="10"/>
<path d="M51.1 44C51.7 39.9 54.8 36.6 58.9 35.8C59.5 35.7 60.2 35.6 60.8 35.7C63.3 35.7 65.7 36.6 67.6 38.3C68.9 39.5 69.8 41.1 70.3 42.8" stroke="white" stroke-width="4" stroke-miterlimit="10"/>
<path d="M64.3 36.3001C67.2 31.9001 73.7 30.3001 78.9 31.4001C83.6 32.3001 87.3 35.9001 88.4 40.6001C89.1 43.5001 89.3 44.6001 91.5 46.1001C94.7 48.3001 94.5 53.2001 91.9 55.5001C91.2 56.1001 90.3 56.4001 89.4 56.4001H86.2" stroke="white" stroke-width="4" stroke-miterlimit="10"/>
<path d="M77.9 56.4H83" stroke="white" stroke-width="4" stroke-miterlimit="10"/>
</g>
<defs>
<clipPath id="clip0_7_360">
<rect width="95.9" height="90.1" fill="white" transform="translate(0 0.5)"/>
</clipPath>
</defs>
</svg>
