<svg width="85" height="74" viewBox="0 0 85 74" fill="none" xmlns="http://www.w3.org/2000/svg">
<g clip-path="url(#clip0_7_311)">
<path d="M61.63 42.36H9.79001C7.62001 42.36 4.79001 40.65 3.91001 38.79C3.00678 37.3842 2.49372 35.7636 2.42343 34.0941C2.35313 32.4247 2.72815 30.7667 3.51001 29.29C4.41687 27.6474 5.77886 26.3017 7.43223 25.4147C9.08559 24.5277 10.96 24.1372 12.83 24.29C14.4 24.37 14.72 23.8 14.91 22.51C15.7164 17.6004 18.0406 13.0667 21.5561 9.54587C25.0715 6.02503 29.6016 3.69391 34.51 2.87997H34.63C40.1488 2.11088 45.7629 3.29595 50.5 6.22997C50.97 6.50997 51.43 6.82997 51.89 7.16997C54.5081 9.155 56.6985 11.6481 58.33 14.5L59.07 15.77" fill="#89C1EB"/>
<path d="M36.93 29.2799C37.2257 27.169 38.1727 25.203 39.6391 23.656C41.1054 22.109 43.0179 21.0581 45.11 20.6499C45.7711 20.5413 46.4401 20.4878 47.11 20.4899C49.756 20.4858 52.3074 21.4742 54.26 23.2599C55.6315 24.5391 56.6156 26.1781 57.1 27.9899" fill="#89C1EB"/>
<path d="M50.93 21.13C53.93 16.51 60.83 14.81 66.34 15.94C68.7718 16.3815 71.0187 17.5322 72.798 19.2475C74.5774 20.9628 75.8097 23.166 76.34 25.58C77.04 28.58 77.26 29.78 79.61 31.41C82.95 33.73 82.72 38.91 80.01 41.35C79.2838 41.9652 78.3713 42.3175 77.42 42.35H59.47" fill="#89C1EB"/>
<path d="M12.91 71.31L18.27 65.65L23.55 71.14" stroke="white" stroke-width="2.5" stroke-miterlimit="10"/>
<path d="M23.55 49.1699L18.19 54.8199L12.91 49.3299" stroke="white" stroke-width="2.5" stroke-miterlimit="10"/>
<path d="M18.19 46.47V73.82" stroke="white" stroke-width="2.5" stroke-miterlimit="10"/>
<path d="M29.39 65.4699L23.74 60.0999L29.23 54.8199" stroke="white" stroke-width="2.5" stroke-miterlimit="10"/>
<path d="M7.25 54.8199L12.91 60.1899L7.42 65.4699" stroke="white" stroke-width="2.5" stroke-miterlimit="10"/>
<path d="M4.55 60.1899H31.91" stroke="white" stroke-width="2.5" stroke-miterlimit="10"/>
<path d="M67.9 64.51L61.69 70.39" stroke="white" stroke-width="3" stroke-miterlimit="10" stroke-linecap="round"/>
<path d="M46.79 64.51L40.59 70.39" stroke="white" stroke-width="3" stroke-miterlimit="10" stroke-linecap="round"/>
<path d="M67.9 51.72L61.69 57.6" stroke="white" stroke-width="3" stroke-miterlimit="10" stroke-linecap="round"/>
<path d="M46.79 51.72L40.59 57.6" stroke="white" stroke-width="3" stroke-miterlimit="10" stroke-linecap="round"/>
<path d="M61.52 42.44H9.42001C7.24001 42.44 4.34001 40.72 3.51001 38.86C2.60095 37.4456 2.08395 35.8152 2.01191 34.1354C1.93987 32.4557 2.31537 30.787 3.10001 29.3C4.01593 27.6517 5.38835 26.3031 7.05234 25.4161C8.71632 24.5291 10.601 24.1416 12.48 24.3C14.05 24.38 14.37 23.81 14.57 22.51C15.3717 17.5712 17.7031 13.0086 21.2357 9.46531C24.7682 5.922 29.3237 3.57669 34.26 2.75998H34.38C39.9443 1.98573 45.6042 3.18139 50.38 6.13998C50.85 6.42998 51.32 6.74998 51.78 7.13998C54.4028 9.12169 56.5998 11.6111 58.24 14.46L59 15.66" stroke="white" stroke-width="4" stroke-miterlimit="10"/>
<path d="M36.7 29.2899C37.0004 27.1702 37.9532 25.1966 39.4262 23.6429C40.8992 22.0893 42.8193 21.0328 44.92 20.6199C45.6087 20.5211 46.3045 20.4809 47 20.4999C49.6613 20.498 52.2266 21.4935 54.19 23.2899C55.544 24.57 56.5167 26.2004 57 27.9999" stroke="white" stroke-width="4" stroke-miterlimit="10"/>
<path d="M50.77 21.11C53.77 16.46 60.72 14.75 66.26 15.89C68.6957 16.3412 70.944 17.5014 72.723 19.2252C74.5019 20.949 75.7324 23.1597 76.26 25.58C76.96 28.64 77.19 29.8 79.55 31.44C82.91 33.76 82.67 38.97 79.95 41.44C79.2199 42.0553 78.3042 42.4074 77.35 42.44H74" stroke="white" stroke-width="4" stroke-miterlimit="10"/>
<path d="M65.18 42.4299H70.57" stroke="white" stroke-width="4" stroke-miterlimit="10"/>
</g>
<defs>
<clipPath id="clip0_7_311">
<rect width="84.06" height="73.32" fill="white" transform="translate(0 0.5)"/>
</clipPath>
</defs>
</svg>
