<svg width="102" height="101" viewBox="0 0 102 101" fill="none" xmlns="http://www.w3.org/2000/svg">
<g clip-path="url(#clip0_7_332)">
<path d="M36.52 14.38C32.0438 14.38 27.6681 15.7075 23.9464 18.1945C20.2247 20.6816 17.3242 24.2165 15.6117 28.3522C13.8991 32.4879 13.4516 37.0385 14.3256 41.4286C15.1996 45.8186 17.3558 49.8509 20.5217 53.0154C23.6876 56.1798 27.7208 58.3343 32.1112 59.2064C36.5017 60.0784 41.0521 59.6289 45.1871 57.9145C49.322 56.2002 52.8556 53.2981 55.341 49.5753C57.8264 45.8525 59.152 41.4762 59.15 37C59.1421 31.0015 56.755 25.2511 52.5124 21.0105C48.2699 16.7698 42.5185 14.3853 36.52 14.38Z" fill="#F4B13E"/>
<path d="M81.18 68.9H35C33.9327 68.8402 32.8962 68.52 31.9811 67.9674C31.0659 67.4149 30.3 66.6467 29.75 65.73C28.9453 64.4766 28.4879 63.0319 28.4247 61.5437C28.3614 60.0555 28.6946 58.5772 29.39 57.26C30.2048 55.804 31.4219 54.6137 32.8957 53.8316C34.3695 53.0495 36.0375 52.7087 37.7 52.85C39.1 52.92 39.39 52.41 39.56 51.25C40.2679 46.872 42.3317 42.8264 45.4604 39.6833C48.5892 36.5402 52.6253 34.458 57 33.73H57.1C62.0221 33.0523 67.0264 34.1133 71.25 36.73C71.66 36.98 72.08 37.27 72.49 37.57C74.8136 39.3297 76.7618 41.5363 78.22 44.06L78.88 45.19" fill="#89C1EB"/>
<path d="M59.17 57.25C59.4377 55.369 60.2845 53.6179 61.5926 52.2399C62.9007 50.8619 64.6054 49.9253 66.47 49.5601C67.0621 49.4664 67.6606 49.4196 68.26 49.42C70.6198 49.4215 72.8944 50.3021 74.64 51.89C75.8579 53.0295 76.7311 54.4883 77.16 56.1" fill="#89C1EB"/>
<path d="M71.65 49.99C74.32 45.88 80.47 44.36 85.38 45.37C87.5434 45.7665 89.5414 46.7934 91.123 48.3217C92.7047 49.85 93.7995 51.8115 94.27 53.96C94.89 56.67 95.09 57.7 97.19 59.15C100.19 61.21 99.96 65.83 97.54 68.01C96.8909 68.5562 96.0778 68.8695 95.23 68.9H79.23" fill="#89C1EB"/>
<path d="M36.23 98.39L41.6 92.73L46.88 98.22" stroke="white" stroke-width="2.5" stroke-miterlimit="10"/>
<path d="M46.88 76.25L41.52 81.9L36.23 76.41" stroke="white" stroke-width="2.5" stroke-miterlimit="10"/>
<path d="M41.51 73.54V100.9" stroke="white" stroke-width="2.5" stroke-miterlimit="10"/>
<path d="M52.72 92.55L47.06 87.18L52.55 81.9" stroke="white" stroke-width="2.5" stroke-miterlimit="10"/>
<path d="M30.58 81.9L36.23 87.26L30.75 92.55" stroke="white" stroke-width="2.5" stroke-miterlimit="10"/>
<path d="M27.88 87.26H55.24" stroke="white" stroke-width="2.5" stroke-miterlimit="10"/>
<path d="M91.22 91.59L85.02 97.47" stroke="white" stroke-width="3" stroke-miterlimit="10" stroke-linecap="round"/>
<path d="M70.12 91.59L63.91 97.47" stroke="white" stroke-width="3" stroke-miterlimit="10" stroke-linecap="round"/>
<path d="M91.22 79.8L85.02 85.68" stroke="white" stroke-width="3" stroke-miterlimit="10" stroke-linecap="round"/>
<path d="M70.12 79.8L63.91 85.68" stroke="white" stroke-width="3" stroke-miterlimit="10" stroke-linecap="round"/>
<path d="M56.42 28.27C55.0855 25.0277 52.9953 22.1513 50.3237 19.8806C47.6521 17.6099 44.4764 16.0106 41.0614 15.216C37.6464 14.4215 34.091 14.4546 30.6914 15.3128C27.2918 16.1709 24.1465 17.8292 21.5178 20.1494C18.889 22.4696 16.8529 25.3845 15.5791 28.6511C14.3053 31.9178 13.8307 35.4416 14.1949 38.9289C14.5591 42.4161 15.7515 45.7658 17.6728 48.6988C19.5941 51.6318 22.1886 54.0631 25.24 55.79" stroke="white" stroke-width="4" stroke-miterlimit="10"/>
<path d="M35.97 14.51V2.5" stroke="white" stroke-width="4" stroke-miterlimit="10" stroke-linecap="square"/>
<path d="M14.01 36.7H2" stroke="white" stroke-width="4" stroke-miterlimit="10" stroke-linecap="square"/>
<path d="M20.4 21.0601L11.9 12.5601" stroke="white" stroke-width="4" stroke-miterlimit="10" stroke-linecap="square"/>
<path d="M51.61 20.9L60.1 12.4" stroke="white" stroke-width="4" stroke-miterlimit="10" stroke-linecap="square"/>
<path d="M20.56 52.27L12.06 60.76" stroke="white" stroke-width="4" stroke-miterlimit="10" stroke-linecap="square"/>
<path d="M81.13 69.13H34.82C33.7496 69.0724 32.7098 68.7522 31.7925 68.1976C30.8751 67.643 30.1084 66.8711 29.56 65.95C28.758 64.6992 28.3022 63.2581 28.2389 61.7736C28.1757 60.2892 28.5073 58.8145 29.2 57.5C30.0144 56.0379 31.2337 54.842 32.7115 54.0561C34.1892 53.2703 35.8624 52.9278 37.53 53.07C38.93 53.14 39.22 52.63 39.39 51.47C40.0949 47.07 42.1645 43.0026 45.3065 39.8427C48.4485 36.6827 52.504 34.5899 56.9 33.86H57.01C61.9418 33.1777 66.9571 34.2387 71.19 36.86C71.6 37.12 72.02 37.4 72.43 37.7C74.7651 39.4612 76.7207 41.6753 78.18 44.21L78.85 45.34" stroke="white" stroke-width="4" stroke-miterlimit="10"/>
<path d="M59.06 57.5C59.3274 55.615 60.1748 53.86 61.4846 52.4784C62.7945 51.0969 64.502 50.1573 66.37 49.79C66.9682 49.6913 67.5738 49.6445 68.18 49.65C70.5436 49.647 72.8229 50.528 74.57 52.12C75.7826 53.2533 76.6583 54.7 77.1 56.3" stroke="white" stroke-width="4" stroke-miterlimit="10"/>
<path d="M71.57 50.17C74.25 46.04 80.41 44.5 85.34 45.5C87.5094 45.8987 89.5126 46.9296 91.0978 48.4633C92.6831 49.997 93.7797 51.965 94.25 54.12C94.88 56.83 95.08 57.87 97.18 59.32C100.18 61.39 99.96 66.02 97.54 68.21C96.8871 68.7562 96.0708 69.0694 95.22 69.1H92.22" stroke="white" stroke-width="4" stroke-miterlimit="10"/>
<path d="M84.38 69.13H89.18" stroke="white" stroke-width="4" stroke-miterlimit="10"/>
</g>
<defs>
<clipPath id="clip0_7_332">
<rect width="101.39" height="100.4" fill="white" transform="translate(0 0.5)"/>
</clipPath>
</defs>
</svg>
