<svg width="85" height="70" viewBox="0 0 85 70" fill="none" xmlns="http://www.w3.org/2000/svg">
<g clip-path="url(#clip0_7_294)">
<path d="M61.52 42.62H9.41999C7.23999 42.62 4.33999 40.9 3.50999 39.03C2.60454 37.6198 2.08951 35.9946 2.01748 34.3204C1.94545 32.6461 2.319 30.9827 3.09999 29.5C4.01591 27.8517 5.38834 26.5031 7.05232 25.6161C8.7163 24.7291 10.601 24.3415 12.48 24.5C14.05 24.58 14.37 24.01 14.57 22.7C15.3698 17.7594 17.7004 13.1946 21.2331 9.64931C24.7658 6.10405 29.3223 3.75727 34.26 2.93997H34.38C39.9446 2.15886 45.6068 3.35501 50.38 6.31997C50.85 6.60997 51.32 6.91997 51.78 7.31997C54.405 9.29926 56.6025 11.7892 58.24 14.64L59 15.84" fill="#89C1EB"/>
<path d="M36.7 29.4999C36.9999 27.3789 37.9523 25.4038 39.4252 23.8485C40.8981 22.2932 42.8185 21.2347 44.92 20.8199C45.582 20.72 46.2505 20.6699 46.92 20.6699C49.5792 20.6692 52.143 21.6605 54.11 23.4499C55.4931 24.7283 56.4937 26.3659 57 28.1799" fill="#89C1EB"/>
<path d="M50.77 21.28C53.77 16.64 60.72 14.93 66.26 16.07C68.6962 16.52 70.9452 17.6798 72.7243 19.4038C74.5035 21.1278 75.7336 23.3391 76.26 25.76C76.96 28.76 77.19 29.98 79.55 31.61C82.91 33.94 82.67 39.15 79.95 41.61C79.2199 42.2253 78.3042 42.5775 77.35 42.61H59.35" fill="#89C1EB"/>
<path d="M67.9 62.51L61.69 68.39" stroke="white" stroke-width="3" stroke-miterlimit="10" stroke-linecap="round"/>
<path d="M25.68 62.51L19.48 68.39" stroke="white" stroke-width="3" stroke-miterlimit="10" stroke-linecap="round"/>
<path d="M46.79 62.51L40.59 68.39" stroke="white" stroke-width="3" stroke-miterlimit="10" stroke-linecap="round"/>
<path d="M67.9 49.72L61.69 55.6" stroke="white" stroke-width="3" stroke-miterlimit="10" stroke-linecap="round"/>
<path d="M25.68 49.72L19.48 55.6" stroke="white" stroke-width="3" stroke-miterlimit="10" stroke-linecap="round"/>
<path d="M46.79 49.72L40.59 55.6" stroke="white" stroke-width="3" stroke-miterlimit="10" stroke-linecap="round"/>
<path d="M61.52 42.44H9.41999C7.23999 42.44 4.33999 40.72 3.50999 38.86C2.60093 37.4456 2.08393 35.8152 2.01189 34.1354C1.93985 32.4557 2.31536 30.787 3.09999 29.3C4.01591 27.6517 5.38834 26.3031 7.05232 25.4161C8.7163 24.5291 10.601 24.1416 12.48 24.3C14.05 24.38 14.37 23.81 14.57 22.51C15.3717 17.5712 17.7031 13.0086 21.2357 9.46531C24.7682 5.922 29.3237 3.57669 34.26 2.75998H34.38C39.9443 1.98573 45.6042 3.18139 50.38 6.13998C50.85 6.42998 51.32 6.74998 51.78 7.13998C54.4028 9.12169 56.5998 11.6111 58.24 14.46L59 15.66" stroke="white" stroke-width="4" stroke-miterlimit="10"/>
<path d="M36.7 29.2899C37.0004 27.1702 37.9532 25.1966 39.4262 23.6429C40.8992 22.0893 42.8193 21.0328 44.92 20.6199C45.6087 20.5211 46.3045 20.4809 47 20.4999C49.6612 20.498 52.2266 21.4935 54.19 23.2899C55.544 24.57 56.5167 26.2004 57 27.9999" stroke="white" stroke-width="4" stroke-miterlimit="10"/>
<path d="M50.77 21.11C53.77 16.46 60.72 14.75 66.26 15.89C68.6957 16.3412 70.944 17.5014 72.7229 19.2252C74.5019 20.949 75.7324 23.1597 76.26 25.58C76.96 28.64 77.19 29.8 79.55 31.44C82.91 33.76 82.67 38.97 79.95 41.44C79.2199 42.0553 78.3042 42.4074 77.35 42.44H74" stroke="white" stroke-width="4" stroke-miterlimit="10"/>
<path d="M65.18 42.4299H70.57" stroke="white" stroke-width="4" stroke-miterlimit="10"/>
</g>
<defs>
<clipPath id="clip0_7_294">
<rect width="84.06" height="69.39" fill="white" transform="translate(0 0.5)"/>
</clipPath>
</defs>
</svg>
