<svg width="102" height="98" viewBox="0 0 102 98" fill="none" xmlns="http://www.w3.org/2000/svg">
<g clip-path="url(#clip0_7_384)">
<path d="M36.52 14.38C32.0438 14.38 27.6681 15.7075 23.9464 18.1945C20.2247 20.6816 17.3242 24.2165 15.6116 28.3522C13.8991 32.4879 13.4516 37.0385 14.3256 41.4286C15.1995 45.8186 17.3558 49.8509 20.5217 53.0154C23.6876 56.1798 27.7208 58.3343 32.1112 59.2064C36.5017 60.0784 41.0521 59.6289 45.187 57.9145C49.322 56.2002 52.8556 53.2981 55.341 49.5753C57.8264 45.8525 59.152 41.4762 59.15 37C59.1421 31.0015 56.755 25.2511 52.5124 21.0105C48.2699 16.7698 42.5185 14.3853 36.52 14.38Z" fill="#F4B13E"/>
<path d="M81.1 69.5H34.7C33.6275 69.4404 32.5861 69.1183 31.6673 68.5621C30.7484 68.0059 29.9801 67.2325 29.43 66.31C28.6198 65.0512 28.1594 63.5994 28.0962 62.1038C28.0329 60.6082 28.369 59.1227 29.07 57.8C29.8887 56.3371 31.1118 55.1412 32.5927 54.3555C34.0736 53.5698 35.7496 53.2276 37.42 53.37C38.82 53.44 39.11 52.93 39.28 51.77C39.9914 47.3687 42.0672 43.3021 45.2144 40.1441C48.3616 36.9862 52.4212 34.8965 56.82 34.17H56.93C61.8714 33.4881 66.8959 34.5489 71.14 37.17C71.55 37.43 71.97 37.71 72.38 38.02C74.7125 39.7748 76.6708 41.9779 78.14 44.5L78.81 45.64" fill="#89C1EB"/>
<path d="M59 57.79C59.2655 55.9007 60.1132 54.141 61.4251 52.7556C62.7369 51.3702 64.4479 50.4281 66.32 50.06C66.9188 49.9668 67.524 49.92 68.13 49.92C70.4982 49.9183 72.7813 50.803 74.53 52.4C75.7542 53.5459 76.6339 55.011 77.07 56.63" fill="#89C1EB"/>
<path d="M71.52 50.5C74.21 46.36 80.38 44.83 85.31 45.85C87.488 46.2447 89.4997 47.2777 91.0896 48.8177C92.6796 50.3578 93.7761 52.3356 94.24 54.5C94.87 57.22 95.07 58.26 97.18 59.72C100.18 61.79 99.96 66.42 97.53 68.62C96.8771 69.1662 96.0607 69.4794 95.21 69.51H79.21" fill="#89C1EB"/>
<path d="M85.22 89.72L79.02 95.59" stroke="white" stroke-width="3" stroke-miterlimit="10" stroke-linecap="round"/>
<path d="M43.01 89.72L36.81 95.59" stroke="white" stroke-width="3" stroke-miterlimit="10" stroke-linecap="round"/>
<path d="M64.12 89.72L57.91 95.59" stroke="white" stroke-width="3" stroke-miterlimit="10" stroke-linecap="round"/>
<path d="M85.22 76.9301L79.02 82.8101" stroke="white" stroke-width="3" stroke-miterlimit="10" stroke-linecap="round"/>
<path d="M43.01 76.9301L36.81 82.8101" stroke="white" stroke-width="3" stroke-miterlimit="10" stroke-linecap="round"/>
<path d="M64.12 76.9301L57.91 82.8101" stroke="white" stroke-width="3" stroke-miterlimit="10" stroke-linecap="round"/>
<path d="M56.42 28.27C55.0855 25.0277 52.9953 22.1513 50.3237 19.8806C47.6521 17.6099 44.4764 16.0106 41.0614 15.216C37.6464 14.4215 34.091 14.4546 30.6914 15.3128C27.2918 16.1709 24.1465 17.8292 21.5178 20.1494C18.889 22.4696 16.8529 25.3845 15.5791 28.6511C14.3053 31.9178 13.8307 35.4416 14.1949 38.9289C14.5591 42.4161 15.7515 45.7658 17.6728 48.6988C19.5941 51.6318 22.1886 54.0631 25.24 55.79" stroke="white" stroke-width="4" stroke-miterlimit="10"/>
<path d="M35.97 14.51V2.5" stroke="white" stroke-width="4" stroke-miterlimit="10" stroke-linecap="square"/>
<path d="M14.01 36.7H2" stroke="white" stroke-width="4" stroke-miterlimit="10" stroke-linecap="square"/>
<path d="M20.4 21.0601L11.9 12.5601" stroke="white" stroke-width="4" stroke-miterlimit="10" stroke-linecap="square"/>
<path d="M51.61 20.9L60.1 12.4" stroke="white" stroke-width="4" stroke-miterlimit="10" stroke-linecap="square"/>
<path d="M20.56 52.27L12.06 60.76" stroke="white" stroke-width="4" stroke-miterlimit="10" stroke-linecap="square"/>
<path d="M81.13 69.13H34.82C33.7496 69.0724 32.7098 68.7522 31.7925 68.1976C30.8751 67.643 30.1084 66.8711 29.56 65.95C28.758 64.6992 28.3022 63.2581 28.2389 61.7736C28.1757 60.2892 28.5073 58.8145 29.2 57.5C30.0144 56.0379 31.2338 54.842 32.7115 54.0561C34.1892 53.2703 35.8624 52.9278 37.53 53.07C38.93 53.14 39.22 52.63 39.39 51.47C40.0949 47.07 42.1645 43.0026 45.3065 39.8427C48.4485 36.6827 52.504 34.5899 56.9 33.86H57.01C61.9418 33.1777 66.9571 34.2387 71.19 36.86C71.6 37.12 72.02 37.4 72.43 37.7C74.7651 39.4612 76.7208 41.6753 78.18 44.21L78.85 45.34" stroke="white" stroke-width="4" stroke-miterlimit="10"/>
<path d="M59.06 57.5C59.3273 55.615 60.1748 53.86 61.4846 52.4784C62.7945 51.0969 64.5019 50.1573 66.37 49.79C66.9682 49.6913 67.5738 49.6445 68.18 49.65C70.5436 49.647 72.8229 50.528 74.57 52.12C75.7826 53.2533 76.6582 54.7 77.1 56.3" stroke="white" stroke-width="4" stroke-miterlimit="10"/>
<path d="M71.57 50.17C74.25 46.04 80.41 44.5 85.34 45.5C87.5094 45.8987 89.5126 46.9296 91.0978 48.4633C92.6831 49.997 93.7798 51.965 94.25 54.12C94.88 56.83 95.08 57.87 97.18 59.32C100.18 61.39 99.96 66.02 97.54 68.21C96.8871 68.7562 96.0708 69.0694 95.22 69.1H92.22" stroke="white" stroke-width="4" stroke-miterlimit="10"/>
<path d="M84.38 69.13H89.18" stroke="white" stroke-width="4" stroke-miterlimit="10"/>
</g>
<defs>
<clipPath id="clip0_7_384">
<rect width="101.39" height="96.59" fill="white" transform="translate(0 0.5)"/>
</clipPath>
</defs>
</svg>
