<svg width="96" height="87" viewBox="0 0 96 87" fill="none" xmlns="http://www.w3.org/2000/svg">
<g clip-path="url(#clip0_7_408)">
<path d="M24 4.10007C11.2 5.60007 2.00001 17.0001 3.20001 29.9001C4.40001 42.7001 15.9 52.0001 28.6 50.6001C31.6 50.2001 34.3 49.4001 37.1 47.9001C35.5 46.8001 34.1 45.6001 32.8 44.2001C28.3 40.0001 25.2 34.6001 24.2 28.5001C23.1 21.1001 25.1 14.0001 27.4 9.10007C28.2 7.50007 29 5.70007 30 4.20007C28.1 3.80007 26 3.80007 24 4.10007Z" fill="#E7D279"/>
<path d="M24 4.10007C11.2 5.60007 2.00001 17.0001 3.20001 29.9001C4.40001 42.7001 15.9 52.0001 28.6 50.6001C31.6 50.2001 34.3 49.4001 37.1 47.9001C35.5 46.8001 34.1 45.6001 32.8 44.2001C28.3 40.0001 25.2 34.6001 24.2 28.5001C23.1 21.1001 25.1 14.0001 27.4 9.10007C28.2 7.50007 29 5.70007 30 4.20007C28.1 3.80007 26 3.80007 24 4.10007Z" stroke="white" stroke-width="3" stroke-miterlimit="10"/>
<path d="M74.4 60.9H24.9C22.6 60.8 20.5 59.5 19.3 57.5C17.5 54.8 17.4 51.3 18.9 48.4C20.7 45.2 24.2 43.4 27.8 43.7C29.3 43.8 29.6 43.2 29.8 42C31.4 32.4 38.9 24.8 48.5 23.2H48.6C53.9 22.5 59.2 23.6 63.8 26.4C64.2 26.7 64.7 27 65.1 27.3C67.6 29.2 69.7 31.6 71.3 34.3L72 35.5" fill="#89C1EB"/>
<path d="M50.8 48.4C51.4 44.3 54.5 41 58.6 40.1C59.2 40 59.9 39.9 60.5 40C63 40 65.5 40.9 67.3 42.6C68.6 43.8 69.5 45.4 70 47.1" fill="#89C1EB"/>
<path d="M64.1 40.7C67 36.3 73.6 34.7 78.8 35.7C83.5 36.6 87.3 40.2 88.3 44.9C89 47.8 89.2 48.9 91.4 50.5C94.6 52.7 94.4 57.7 91.8 60C91.1 60.6 90.2 61 89.3 61H72.2" fill="#89C1EB"/>
<path d="M74.5 60.3H25.3C23 60.2 20.9 58.9 19.7 56.9C18 54.2 17.8 50.7 19.3 47.9C21.1 44.7 24.5 42.9 28.2 43.2C29.7 43.3 30 42.7 30.2 41.5C31.7 31.9 39.2 24.4 48.8 22.8H48.9C54.1 22.1 59.5 23.2 64 26C64.4 26.3 64.9 26.6 65.3 26.9C67.8 28.8 69.9 31.1 71.4 33.8L72.1 35" stroke="white" stroke-width="4" stroke-miterlimit="10"/>
<path d="M51 47.9C51.6 43.8 54.7 40.5 58.8 39.7C59.4 39.6 60.1 39.5 60.7 39.6C63.2 39.6 65.6 40.5 67.5 42.2C68.8 43.4 69.7 45 70.2 46.7" stroke="white" stroke-width="4" stroke-miterlimit="10"/>
<path d="M64.3 40.2C67.2 35.8 73.7 34.2 78.9 35.3C83.6 36.2 87.3 39.8 88.4 44.5C89.1 47.4 89.3 48.5 91.5 50C94.7 52.2 94.5 57.1 91.9 59.4C91.2 60 90.3 60.3 89.4 60.3H86.2" stroke="white" stroke-width="4" stroke-miterlimit="10"/>
<path d="M78.9 58.3H84" stroke="white" stroke-width="4" stroke-miterlimit="10"/>
<path d="M80.7 78.8L74.5 84.7001" stroke="white" stroke-width="3" stroke-miterlimit="10" stroke-linecap="round"/>
<path d="M38.5 78.8L32.3 84.7001" stroke="white" stroke-width="3" stroke-miterlimit="10" stroke-linecap="round"/>
<path d="M59.6 78.8L53.4 84.7001" stroke="white" stroke-width="3" stroke-miterlimit="10" stroke-linecap="round"/>
<path d="M80.7 66L74.5 71.9" stroke="white" stroke-width="3" stroke-miterlimit="10" stroke-linecap="round"/>
<path d="M38.5 66L32.3 71.9" stroke="white" stroke-width="3" stroke-miterlimit="10" stroke-linecap="round"/>
<path d="M59.6 66L53.4 71.9" stroke="white" stroke-width="3" stroke-miterlimit="10" stroke-linecap="round"/>
</g>
<defs>
<clipPath id="clip0_7_408">
<rect width="95.9" height="85.8" fill="white" transform="translate(0 0.5)"/>
</clipPath>
</defs>
</svg>
