<svg width="81" height="63" viewBox="0 0 81 63" fill="none" xmlns="http://www.w3.org/2000/svg">
<g clip-path="url(#clip0_7_428)">
<path d="M70.69 20.01V8.59997C70.7468 7.70322 70.6177 6.80441 70.3106 5.95995C70.0036 5.11548 69.5254 4.34359 68.9059 3.69272C68.2864 3.04184 67.5391 2.52604 66.7108 2.17768C65.8826 1.82931 64.9912 1.65591 64.0928 1.66835C63.1943 1.68079 62.3081 1.8788 61.4898 2.24997C60.6715 2.62113 59.9388 3.15743 59.3376 3.8252C58.7363 4.49298 58.2796 5.27781 57.9961 6.13046C57.7126 6.9831 57.6084 7.88514 57.69 8.77997C57.69 16.22 57.69 23.65 57.69 31.08C57.7297 31.613 57.6126 32.1459 57.3532 32.6132C57.0938 33.0805 56.7033 33.4618 56.23 33.71C53.3104 35.6021 51.1612 38.4734 50.1687 41.8079C49.1762 45.1425 49.4053 48.7217 50.815 51.9024C52.2246 55.0832 54.7224 57.657 57.8594 59.1614C60.9965 60.6657 64.5672 61.0021 67.93 60.11C73.34 58.58 76.93 55.11 78.25 49.95C79.86 43.73 77 37.39 71.86 33.5C71.4609 33.24 71.1395 32.8768 70.93 32.449C70.7205 32.0212 70.6307 31.5447 70.67 31.07C70.73 27.41 70.69 23.71 70.69 20.01Z" fill="#649F4E"/>
<path d="M8.84 56.19L14.51 50.21L20.1 56.02" stroke="white" stroke-width="3" stroke-miterlimit="10"/>
<path d="M20.1 32.78L14.42 38.76L8.84 32.95" stroke="white" stroke-width="3" stroke-miterlimit="10"/>
<path d="M14.42 29.9199V58.8499" stroke="white" stroke-width="3" stroke-miterlimit="10"/>
<path d="M26.27 50.02L20.3 44.34L26.1 38.76" stroke="white" stroke-width="3" stroke-miterlimit="10"/>
<path d="M2.86 38.76L8.84 44.43L3.03 50.02" stroke="white" stroke-width="3" stroke-miterlimit="10"/>
<path d="M0 44.4299H28.94" stroke="white" stroke-width="3" stroke-miterlimit="10"/>
<path d="M21.41 27.26L27.08 21.28L32.67 27.08" stroke="white" stroke-width="3" stroke-miterlimit="10"/>
<path d="M32.67 3.83997L26.99 9.81997L21.41 4.01997" stroke="white" stroke-width="3" stroke-miterlimit="10"/>
<path d="M26.99 0.97998V29.92" stroke="white" stroke-width="3" stroke-miterlimit="10"/>
<path d="M38.84 21.0799L32.86 15.4099L38.67 9.81995" stroke="white" stroke-width="3" stroke-miterlimit="10"/>
<path d="M15.43 9.81995L21.41 15.4899L15.6 21.0799" stroke="white" stroke-width="3" stroke-miterlimit="10"/>
<path d="M12.57 15.49H41.51" stroke="white" stroke-width="3" stroke-miterlimit="10"/>
<path d="M70.69 20.01V8.59997C70.7468 7.70322 70.6177 6.80441 70.3106 5.95995C70.0036 5.11548 69.5254 4.34359 68.9059 3.69272C68.2864 3.04184 67.5391 2.52604 66.7108 2.17768C65.8826 1.82931 64.9912 1.65591 64.0928 1.66835C63.1943 1.68079 62.3081 1.8788 61.4898 2.24997C60.6715 2.62113 59.9388 3.15743 59.3376 3.8252C58.7363 4.49298 58.2796 5.27781 57.9961 6.13046C57.7126 6.9831 57.6084 7.88514 57.69 8.77997C57.69 16.22 57.69 23.65 57.69 31.08C57.7297 31.613 57.6126 32.1459 57.3532 32.6132C57.0938 33.0805 56.7033 33.4618 56.23 33.71C53.3104 35.6021 51.1612 38.4734 50.1687 41.8079C49.1762 45.1425 49.4053 48.7217 50.815 51.9024C52.2246 55.0832 54.7224 57.657 57.8594 59.1614C60.9965 60.6657 64.5672 61.0021 67.93 60.11C73.34 58.58 76.93 55.11 78.25 49.95C79.86 43.73 77 37.39 71.86 33.5C71.4609 33.24 71.1395 32.8768 70.93 32.449C70.7205 32.0212 70.6307 31.5447 70.67 31.07C70.73 27.41 70.69 23.71 70.69 20.01Z" stroke="white" stroke-width="3" stroke-miterlimit="10"/>
<path d="M63.83 11.03V36.44C63.83 37.81 63.55 38.16 62.34 38.27C59.82 38.5 57.1 40.5 56.76 45.01" stroke="white" stroke-width="3" stroke-miterlimit="10" stroke-linecap="round"/>
<path d="M63.68 51.9C65.4623 51.8421 67.1553 51.1062 68.4134 49.8425C69.6716 48.5787 70.4 46.8825 70.45 45.1" stroke="white" stroke-width="3" stroke-miterlimit="10" stroke-linecap="round"/>
</g>
<defs>
<clipPath id="clip0_7_428">
<rect width="80.19" height="61.64" fill="white" transform="translate(0 0.5)"/>
</clipPath>
</defs>
</svg>
