<svg width="96" height="98" viewBox="0 0 96 98" fill="none" xmlns="http://www.w3.org/2000/svg">
<g clip-path="url(#clip0_7_536)">
<path d="M22.9 3.10007C10.1 4.60007 0.900002 16.0001 2.1 28.9001C3.4 41.7001 14.8 50.9001 27.5 49.6001C30.5 49.2001 33.2 48.4001 36 46.9001C34.4 45.8001 33 44.6001 31.7 43.2001C27.2 39.0001 24.1 33.6001 23.1 27.5001C22 20.1001 24 13.0001 26.3 8.10007C27.1 6.50007 27.9 4.70007 28.9 3.20007C27 2.80007 24.9 2.80007 22.9 3.10007Z" fill="#E7D279"/>
<path d="M22.9 3.10007C10.1 4.60007 0.900002 16.0001 2.1 28.9001C3.4 41.7001 14.8 50.9001 27.5 49.6001C30.5 49.2001 33.2 48.4001 36 46.9001C34.4 45.8001 33 44.6001 31.7 43.2001C27.2 39.0001 24.1 33.6001 23.1 27.5001C22 20.1001 24 13.0001 26.3 8.10007C27.1 6.50007 27.9 4.70007 28.9 3.20007C27 2.80007 24.9 2.80007 22.9 3.10007Z" stroke="white" stroke-width="3" stroke-miterlimit="10"/>
<path d="M74.7 60.4001H26.2C23.9 60.3001 21.9 59.0001 20.7 57.0001C19 54.3001 18.8 50.9001 20.3 48.0001C22 44.9001 25.4 43.0001 29 43.3001C30.5 43.4001 30.8 42.8001 30.9 41.6001C32.4 32.1001 39.8 24.6001 49.3 23.0001H49.4C54.6 22.3001 59.8 23.4001 64.2 26.2001C64.6 26.5001 65.1 26.8001 65.5 27.1001C67.9 29.0001 70 31.3001 71.5 34.0001L72.2 35.2001" fill="#89C1EB"/>
<path d="M51.6 48.0001C52.2 43.9001 55.2 40.7001 59.2 39.8001C59.8 39.7001 60.5 39.7001 61.1 39.7001C63.6 39.7001 66 40.6001 67.8 42.3001C69.1 43.5001 70 45.1001 70.5 46.8001" fill="#89C1EB"/>
<path d="M64.7 40.3001C67.5 35.9001 74 34.3001 79.1 35.4001C83.8 36.3001 87.4 39.9001 88.4 44.5001C89.1 47.4001 89.3 48.5001 91.5 50.0001C94.6 52.2001 94.4 57.1001 91.9 59.4001C91.2 60.0001 90.4 60.3001 89.5 60.3001H72.7" fill="#89C1EB"/>
<path d="M63.8 96.5L66.2 93.9L68.6 96.4" stroke="white" stroke-width="1.5" stroke-miterlimit="10"/>
<path d="M68.6 86.6001L66.2 89.1001L63.8 86.6001" stroke="white" stroke-width="1.5" stroke-miterlimit="10"/>
<path d="M66.2 85.4V97.6" stroke="white" stroke-width="1.5" stroke-miterlimit="10"/>
<path d="M71.2 93.9001L68.7 91.5001L71.1 89.1001" stroke="white" stroke-width="1.5" stroke-miterlimit="10"/>
<path d="M61.3 89.1001L63.8 91.5001L61.4 93.9001" stroke="white" stroke-width="1.5" stroke-miterlimit="10"/>
<path d="M60.1 91.5H72.3" stroke="white" stroke-width="1.5" stroke-miterlimit="10"/>
<path d="M44.9 96.5L47.3 93.9L49.7 96.4" stroke="white" stroke-width="1.5" stroke-miterlimit="10"/>
<path d="M49.7 86.6001L47.3 89.1001L44.9 86.6001" stroke="white" stroke-width="1.5" stroke-miterlimit="10"/>
<path d="M47.3 85.4V97.6" stroke="white" stroke-width="1.5" stroke-miterlimit="10"/>
<path d="M52.3 93.9001L49.7 91.5001L52.2 89.1001" stroke="white" stroke-width="1.5" stroke-miterlimit="10"/>
<path d="M42.4 89.1001L44.9 91.5001L42.4 93.9001" stroke="white" stroke-width="1.5" stroke-miterlimit="10"/>
<path d="M41.2 91.5H53.4" stroke="white" stroke-width="1.5" stroke-miterlimit="10"/>
<path d="M79.6 80.6001L82.9 77.1001L86.2 80.4001" stroke="white" stroke-width="2" stroke-miterlimit="10"/>
<path d="M86.2 66.9L82.9 70.4L79.6 67" stroke="white" stroke-width="2" stroke-miterlimit="10"/>
<path d="M82.9 65.2001V82.1001" stroke="white" stroke-width="2" stroke-miterlimit="10"/>
<path d="M89.8 76.9L86.3 73.6L89.7 70.4" stroke="white" stroke-width="2" stroke-miterlimit="10"/>
<path d="M76.1 70.4L79.6 73.7L76.2 76.9" stroke="white" stroke-width="2" stroke-miterlimit="10"/>
<path d="M74.5 73.7001H91.3" stroke="white" stroke-width="2" stroke-miterlimit="10"/>
<path d="M53.6 80.6001L56.9 77.1001L60.1 80.4001" stroke="white" stroke-width="2" stroke-miterlimit="10"/>
<path d="M60.1 66.9L56.8 70.4L53.6 67" stroke="white" stroke-width="2" stroke-miterlimit="10"/>
<path d="M56.8 65.2001V82.1001" stroke="white" stroke-width="2" stroke-miterlimit="10"/>
<path d="M63.7 76.9L60.3 73.6L63.6 70.4" stroke="white" stroke-width="2" stroke-miterlimit="10"/>
<path d="M50.1 70.4L53.6 73.7L50.2 76.9" stroke="white" stroke-width="2" stroke-miterlimit="10"/>
<path d="M48.4 73.7001H65.3" stroke="white" stroke-width="2" stroke-miterlimit="10"/>
<path d="M27.5 80.6001L30.8 77.1001L34.1 80.4001" stroke="white" stroke-width="2" stroke-miterlimit="10"/>
<path d="M34.1 66.9L30.8 70.4L27.5 67" stroke="white" stroke-width="2" stroke-miterlimit="10"/>
<path d="M30.8 65.2001V82.1001" stroke="white" stroke-width="2" stroke-miterlimit="10"/>
<path d="M37.7 76.9L34.2 73.6L37.6 70.4" stroke="white" stroke-width="2" stroke-miterlimit="10"/>
<path d="M24.1 70.4L27.5 73.7L24.1 76.9" stroke="white" stroke-width="2" stroke-miterlimit="10"/>
<path d="M22.4 73.7001H39.2" stroke="white" stroke-width="2" stroke-miterlimit="10"/>
<path d="M74.5 60.4001H25.3C23 60.3001 20.9 59.0001 19.7 57.0001C18 54.3001 17.8 50.8001 19.3 48.0001C21.1 44.8001 24.5 43.0001 28.1 43.3001C29.6 43.4001 29.9 42.8001 30.1 41.6001C31.6 32.0001 39.1 24.5001 48.7 22.9001H48.8C54 22.2001 59.4 23.3001 63.9 26.1001C64.3 26.4001 64.8 26.7001 65.2 27.0001C67.7 28.9001 69.8 31.2001 71.3 33.9001L72 35.1001" stroke="white" stroke-width="4" stroke-miterlimit="10"/>
<path d="M51.1 48C51.7 43.9 54.8 40.6 58.9 39.8C59.5 39.7 60.2 39.6 60.8 39.7C63.3 39.7 65.7 40.6 67.6 42.3C68.9 43.5 69.8 45.1 70.3 46.8" stroke="white" stroke-width="4" stroke-miterlimit="10"/>
<path d="M64.3 40.3001C67.2 35.9001 73.7 34.3001 78.9 35.4001C83.6 36.3001 87.3 39.9001 88.4 44.6001C89.1 47.5001 89.3 48.6001 91.5 50.1001C94.7 52.3001 94.5 57.2001 91.9 59.5001C91.2 60.1001 90.3 60.4001 89.4 60.4001H86.2" stroke="white" stroke-width="4" stroke-miterlimit="10"/>
<path d="M77.9 60.4H83" stroke="white" stroke-width="4" stroke-miterlimit="10"/>
</g>
<defs>
<clipPath id="clip0_7_536">
<rect width="95.9" height="97.1" fill="white" transform="translate(0 0.5)"/>
</clipPath>
</defs>
</svg>
