<svg width="80" height="82" viewBox="0 0 80 82" fill="none" xmlns="http://www.w3.org/2000/svg">
<g clip-path="url(#clip0_7_447)">
<path d="M58.62 40.29H9.71C8.57542 40.2234 7.47493 39.8772 6.50657 39.2823C5.53822 38.6873 4.73209 37.862 4.16 36.88C3.24015 35.4594 2.73948 33.8082 2.71545 32.116C2.69143 30.4238 3.14503 28.7591 4.02419 27.313C4.90335 25.8669 6.17243 24.6979 7.68579 23.9403C9.19915 23.1828 10.8955 22.8672 12.58 23.03C14.05 23.11 14.36 22.56 14.58 21.32C15.3014 16.6527 17.4655 12.3283 20.7689 8.95313C24.0723 5.57799 28.3493 3.32146 33 2.49999H33.11C38.3335 1.76372 43.6489 2.90475 48.11 5.71999C48.5621 6.00053 48.9993 6.30427 49.42 6.62999C51.8953 8.52944 53.9602 10.9107 55.49 13.63L56.2 14.84" fill="#89C1EB"/>
<path d="M35.31 27.77C35.578 25.7651 36.4617 23.8927 37.8391 22.4114C39.2165 20.9301 41.0198 19.9128 43 19.5C43.6312 19.3966 44.2704 19.3498 44.91 19.36C47.4149 19.3539 49.8283 20.3013 51.66 22.01C52.961 23.2257 53.8962 24.7809 54.36 26.5" fill="#89C1EB"/>
<path d="M48.52 19.97C51.35 15.54 57.86 13.91 63.06 14.97C65.3645 15.4077 67.4879 16.5177 69.1625 18.1603C70.8371 19.8028 71.9879 21.9044 72.47 24.2C73.14 27.11 73.35 28.2 75.56 29.78C78.72 32 78.5 36.96 75.94 39.3C75.2666 39.9051 74.4044 40.2585 73.5 40.3H56.58" fill="#89C1EB"/>
<path d="M48.16 79.91L50.66 77.28L53.11 79.84" stroke="white" stroke-width="1.5" stroke-miterlimit="10"/>
<path d="M53.11 69.61L50.62 72.24L48.16 69.69" stroke="white" stroke-width="1.5" stroke-miterlimit="10"/>
<path d="M50.62 68.36V81.08" stroke="white" stroke-width="1.5" stroke-miterlimit="10"/>
<path d="M55.83 77.2L53.2 74.7L55.75 72.24" stroke="white" stroke-width="1.5" stroke-miterlimit="10"/>
<path d="M45.53 72.24L48.16 74.74L45.61 77.2" stroke="white" stroke-width="1.5" stroke-miterlimit="10"/>
<path d="M44.27 74.74H57" stroke="white" stroke-width="1.5" stroke-miterlimit="10"/>
<path d="M28.51 79.91L31 77.28L33.46 79.84" stroke="white" stroke-width="1.5" stroke-miterlimit="10"/>
<path d="M33.46 69.61L30.97 72.24L28.51 69.69" stroke="white" stroke-width="1.5" stroke-miterlimit="10"/>
<path d="M30.97 68.36V81.08" stroke="white" stroke-width="1.5" stroke-miterlimit="10"/>
<path d="M36.18 77.2L33.55 74.7L36.1 72.24" stroke="white" stroke-width="1.5" stroke-miterlimit="10"/>
<path d="M25.88 72.24L28.51 74.74L25.96 77.2" stroke="white" stroke-width="1.5" stroke-miterlimit="10"/>
<path d="M24.62 74.74H37.35" stroke="white" stroke-width="1.5" stroke-miterlimit="10"/>
<path d="M64.59 63.36L68.03 59.74L71.41 63.26" stroke="white" stroke-width="2" stroke-miterlimit="10"/>
<path d="M71.41 49.1799L67.98 52.7999L64.59 49.2799" stroke="white" stroke-width="2" stroke-miterlimit="10"/>
<path d="M67.98 47.4399V64.9699" stroke="white" stroke-width="2" stroke-miterlimit="10"/>
<path d="M75.16 59.6199L71.53 56.1799L75.05 52.7999" stroke="white" stroke-width="2" stroke-miterlimit="10"/>
<path d="M60.97 52.7999L64.59 56.2399L61.08 59.6199" stroke="white" stroke-width="2" stroke-miterlimit="10"/>
<path d="M59.24 56.24H76.77" stroke="white" stroke-width="2" stroke-miterlimit="10"/>
<path d="M37.53 63.36L40.97 59.74L44.35 63.26" stroke="white" stroke-width="2" stroke-miterlimit="10"/>
<path d="M44.35 49.1799L40.91 52.7999L37.53 49.2799" stroke="white" stroke-width="2" stroke-miterlimit="10"/>
<path d="M40.91 47.4399V64.9699" stroke="white" stroke-width="2" stroke-miterlimit="10"/>
<path d="M48.09 59.6199L44.47 56.1799L47.98 52.7999" stroke="white" stroke-width="2" stroke-miterlimit="10"/>
<path d="M33.91 52.7999L37.53 56.2399L34.01 59.6199" stroke="white" stroke-width="2" stroke-miterlimit="10"/>
<path d="M32.17 56.24H49.7" stroke="white" stroke-width="2" stroke-miterlimit="10"/>
<path d="M10.46 63.36L13.9 59.74L17.29 63.26" stroke="white" stroke-width="2" stroke-miterlimit="10"/>
<path d="M17.29 49.1799L13.85 52.7999L10.46 49.2799" stroke="white" stroke-width="2" stroke-miterlimit="10"/>
<path d="M13.85 47.4399V64.9699" stroke="white" stroke-width="2" stroke-miterlimit="10"/>
<path d="M21.03 59.6199L17.4 56.1799L20.92 52.7999" stroke="white" stroke-width="2" stroke-miterlimit="10"/>
<path d="M6.84 52.7999L10.46 56.2399L6.95 59.6199" stroke="white" stroke-width="2" stroke-miterlimit="10"/>
<path d="M5.11 56.24H22.64" stroke="white" stroke-width="2" stroke-miterlimit="10"/>
<path d="M58.22 40.2199H9C7.86364 40.1535 6.76063 39.811 5.78655 39.222C4.81247 38.633 3.99672 37.8154 3.41 36.8399C2.56154 35.5054 2.0797 33.9709 2.01299 32.3909C1.94628 30.8109 2.29706 29.2412 3.03 27.8399C3.89717 26.2857 5.19432 25.0146 6.76585 24.1792C8.33739 23.3437 10.1166 22.9794 11.89 23.1299C13.37 23.2099 13.68 22.6699 13.89 21.4399C14.6411 16.7709 16.838 12.4551 20.1711 9.10038C23.5043 5.74567 27.8059 3.52108 32.47 2.73992H32.59C37.8305 2.01045 43.1611 3.13529 47.66 5.91992C48.1 6.19326 48.54 6.49326 48.98 6.81992C51.4575 8.69229 53.535 11.0418 55.09 13.7299L55.8 14.9299" stroke="white" stroke-width="4" stroke-miterlimit="10"/>
<path d="M34.77 27.81C35.0508 25.8046 35.9503 23.9368 37.3431 22.467C38.7359 20.9971 40.5526 19.9984 42.54 19.61C43.1755 19.5163 43.818 19.4795 44.46 19.5C46.9712 19.4944 49.3935 20.4291 51.25 22.12C52.542 23.3413 53.4727 24.8947 53.94 26.61" stroke="white" stroke-width="4" stroke-miterlimit="10"/>
<path d="M48.06 20.0699C50.91 15.6899 57.46 14.0699 62.69 15.1499C64.9965 15.5675 67.1273 16.6597 68.813 18.2884C70.4986 19.9171 71.6634 22.0092 72.16 24.2999C72.83 27.1899 73.04 28.2999 75.27 29.8299C78.45 32.0299 78.27 36.9499 75.66 39.2699C74.9683 39.8577 74.0973 40.1927 73.19 40.2199H70" stroke="white" stroke-width="4" stroke-miterlimit="10"/>
<path d="M61.67 40.22H66.77" stroke="white" stroke-width="4" stroke-miterlimit="10"/>
</g>
<defs>
<clipPath id="clip0_7_447">
<rect width="79.62" height="80.58" fill="white" transform="translate(0 0.5)"/>
</clipPath>
</defs>
</svg>
