<svg width="102" height="108" viewBox="0 0 102 108" fill="none" xmlns="http://www.w3.org/2000/svg">
<g clip-path="url(#clip0_7_488)">
<path d="M36.06 14.62C31.7088 14.62 27.4553 15.9103 23.8375 18.3277C20.2196 20.7451 17.3998 24.181 15.7347 28.201C14.0695 32.2209 13.6339 36.6444 14.4827 40.912C15.3316 45.1796 17.4269 49.0996 20.5037 52.1763C23.5804 55.2531 27.5004 57.3484 31.768 58.1973C36.0356 59.0461 40.4591 58.6105 44.479 56.9453C48.499 55.2802 51.9349 52.4604 54.3523 48.8425C56.7697 45.2247 58.06 40.9712 58.06 36.62C58.06 30.7852 55.7422 25.1894 51.6164 21.0636C47.4906 16.9378 41.8948 14.62 36.06 14.62Z" fill="#F4B13E"/>
<path d="M80.8 68.9699H34.08C32.9953 68.9049 31.9435 68.5723 31.0187 68.0016C30.0938 67.431 29.3247 66.6403 28.78 65.6999C27.9127 64.3453 27.4421 62.7747 27.4218 61.1663C27.4014 59.5578 27.832 57.9759 28.6648 56.5997C29.4976 55.2235 30.6993 54.1081 32.1336 53.3799C33.5679 52.6518 35.1775 52.34 36.78 52.4799C38.19 52.5499 38.48 52.0299 38.66 50.8399C39.3476 46.3681 41.4221 42.225 44.5907 38.9954C47.7593 35.7658 51.8621 33.6127 56.32 32.8399H56.43C61.4109 32.1446 66.4771 33.2357 70.73 35.9199C71.15 36.1799 71.57 36.4699 71.99 36.7899C74.3464 38.5999 76.3154 40.8647 77.78 43.4499L78.46 44.6099" fill="#89C1EB"/>
<path d="M58.54 57C58.7985 55.0818 59.6465 53.2914 60.9668 51.8762C62.2871 50.461 64.0144 49.4908 65.91 49.1C66.5118 49.0047 67.1207 48.9612 67.73 48.97C70.1237 48.9613 72.4305 49.8661 74.18 51.5C75.4171 52.6733 76.3005 54.1699 76.73 55.82" fill="#89C1EB"/>
<path d="M71.16 49.55C73.86 45.32 80.08 43.76 85.04 44.8C87.2421 45.2202 89.2711 46.2814 90.8722 47.8506C92.4734 49.4197 93.5754 51.4268 94.04 53.62C94.67 56.4 94.87 57.46 96.99 58.95C99.99 61.07 99.79 65.81 97.35 68.05C96.696 68.6104 95.8707 68.9313 95.01 68.96H78.86" fill="#89C1EB"/>
<path d="M71.3 106.7L73.7 104.17L76.07 106.63" stroke="white" stroke-width="1.5" stroke-miterlimit="10"/>
<path d="M76.07 96.79L73.67 99.32L71.3 96.86" stroke="white" stroke-width="1.5" stroke-miterlimit="10"/>
<path d="M73.67 95.58V107.83" stroke="white" stroke-width="1.5" stroke-miterlimit="10"/>
<path d="M78.68 104.09L76.15 101.69L78.61 99.3199" stroke="white" stroke-width="1.5" stroke-miterlimit="10"/>
<path d="M68.77 99.3199L71.3 101.72L68.84 104.09" stroke="white" stroke-width="1.5" stroke-miterlimit="10"/>
<path d="M67.56 101.72H79.81" stroke="white" stroke-width="1.5" stroke-miterlimit="10"/>
<path d="M52.39 106.7L54.8 104.17L57.16 106.63" stroke="white" stroke-width="1.5" stroke-miterlimit="10"/>
<path d="M57.16 96.79L54.76 99.32L52.39 96.86" stroke="white" stroke-width="1.5" stroke-miterlimit="10"/>
<path d="M54.76 95.58V107.83" stroke="white" stroke-width="1.5" stroke-miterlimit="10"/>
<path d="M59.77 104.09L57.24 101.69L59.7 99.3199" stroke="white" stroke-width="1.5" stroke-miterlimit="10"/>
<path d="M49.86 99.3199L52.39 101.72L49.94 104.09" stroke="white" stroke-width="1.5" stroke-miterlimit="10"/>
<path d="M48.65 101.72H60.9" stroke="white" stroke-width="1.5" stroke-miterlimit="10"/>
<path d="M87.11 90.77L90.42 87.29L93.68 90.67" stroke="white" stroke-width="2" stroke-miterlimit="10"/>
<path d="M93.68 77.12L90.37 80.61L87.11 77.23" stroke="white" stroke-width="2" stroke-miterlimit="10"/>
<path d="M90.37 75.46V92.33" stroke="white" stroke-width="2" stroke-miterlimit="10"/>
<path d="M97.28 87.17L93.79 83.87L97.18 80.61" stroke="white" stroke-width="2" stroke-miterlimit="10"/>
<path d="M83.63 80.61L87.11 83.92L83.73 87.17" stroke="white" stroke-width="2" stroke-miterlimit="10"/>
<path d="M81.96 83.92H98.83" stroke="white" stroke-width="2" stroke-miterlimit="10"/>
<path d="M61.07 90.77L64.38 87.29L67.64 90.67" stroke="white" stroke-width="2" stroke-miterlimit="10"/>
<path d="M67.64 77.12L64.33 80.61L61.07 77.23" stroke="white" stroke-width="2" stroke-miterlimit="10"/>
<path d="M64.33 75.46V92.33" stroke="white" stroke-width="2" stroke-miterlimit="10"/>
<path d="M71.24 87.17L67.75 83.87L71.13 80.61" stroke="white" stroke-width="2" stroke-miterlimit="10"/>
<path d="M57.59 80.61L61.07 83.92L57.69 87.17" stroke="white" stroke-width="2" stroke-miterlimit="10"/>
<path d="M55.92 83.92H72.79" stroke="white" stroke-width="2" stroke-miterlimit="10"/>
<path d="M35.03 90.77L38.34 87.29L41.59 90.67" stroke="white" stroke-width="2" stroke-miterlimit="10"/>
<path d="M41.59 77.12L38.29 80.61L35.03 77.23" stroke="white" stroke-width="2" stroke-miterlimit="10"/>
<path d="M38.29 75.46V92.33" stroke="white" stroke-width="2" stroke-miterlimit="10"/>
<path d="M45.19 87.17L41.71 83.87L45.09 80.61" stroke="white" stroke-width="2" stroke-miterlimit="10"/>
<path d="M31.54 80.61L35.03 83.92L31.64 87.17" stroke="white" stroke-width="2" stroke-miterlimit="10"/>
<path d="M29.88 83.92H46.75" stroke="white" stroke-width="2" stroke-miterlimit="10"/>
<path d="M56.42 28.27C55.0855 25.0277 52.9953 22.1513 50.3237 19.8806C47.6521 17.6099 44.4765 16.0106 41.0615 15.216C37.6465 14.4215 34.091 14.4546 30.6914 15.3128C27.2918 16.1709 24.1466 17.8292 21.5178 20.1494C18.889 22.4696 16.8529 25.3845 15.5791 28.6511C14.3053 31.9178 13.8307 35.4416 14.1949 38.9289C14.5591 42.4161 15.7516 45.7658 17.6728 48.6988C19.5941 51.6318 22.1886 54.0631 25.24 55.79" stroke="white" stroke-width="4" stroke-miterlimit="10"/>
<path d="M35.97 14.51V2.5" stroke="white" stroke-width="4" stroke-miterlimit="10" stroke-linecap="square"/>
<path d="M14.01 36.7H2" stroke="white" stroke-width="4" stroke-miterlimit="10" stroke-linecap="square"/>
<path d="M20.4 21.0601L11.9 12.5601" stroke="white" stroke-width="4" stroke-miterlimit="10" stroke-linecap="square"/>
<path d="M51.61 20.9L60.1 12.4" stroke="white" stroke-width="4" stroke-miterlimit="10" stroke-linecap="square"/>
<path d="M20.56 52.27L12.06 60.76" stroke="white" stroke-width="4" stroke-miterlimit="10" stroke-linecap="square"/>
<path d="M81.13 69.13H34.82C33.7496 69.0724 32.7098 68.7522 31.7925 68.1976C30.8751 67.643 30.1084 66.8711 29.56 65.95C28.758 64.6992 28.3022 63.2581 28.2389 61.7736C28.1757 60.2892 28.5073 58.8145 29.2 57.5C30.0144 56.0379 31.2338 54.842 32.7115 54.0561C34.1892 53.2703 35.8624 52.9278 37.53 53.07C38.93 53.14 39.22 52.63 39.39 51.47C40.0949 47.07 42.1645 43.0026 45.3065 39.8427C48.4485 36.6827 52.504 34.5899 56.9 33.86H57.01C61.9418 33.1777 66.9571 34.2387 71.19 36.86C71.6 37.12 72.02 37.4 72.43 37.7C74.7651 39.4612 76.7208 41.6753 78.18 44.21L78.85 45.34" stroke="white" stroke-width="4" stroke-miterlimit="10"/>
<path d="M59.06 57.5C59.3273 55.615 60.1748 53.86 61.4846 52.4784C62.7945 51.0969 64.5019 50.1573 66.37 49.79C66.9682 49.6913 67.5738 49.6445 68.18 49.65C70.5436 49.647 72.8229 50.528 74.57 52.12C75.7826 53.2533 76.6582 54.7 77.1 56.3" stroke="white" stroke-width="4" stroke-miterlimit="10"/>
<path d="M71.57 50.17C74.25 46.04 80.41 44.5 85.34 45.5C87.5094 45.8987 89.5126 46.9296 91.0978 48.4633C92.6831 49.997 93.7798 51.965 94.25 54.12C94.88 56.83 95.08 57.87 97.18 59.32C100.18 61.39 99.96 66.02 97.54 68.21C96.8871 68.7562 96.0708 69.0694 95.22 69.1H92.22" stroke="white" stroke-width="4" stroke-miterlimit="10"/>
<path d="M84.38 69.13H89.18" stroke="white" stroke-width="4" stroke-miterlimit="10"/>
</g>
<defs>
<clipPath id="clip0_7_488">
<rect width="101.39" height="107.33" fill="white" transform="translate(0 0.5)"/>
</clipPath>
</defs>
</svg>
