<svg width="80" height="71" viewBox="0 0 80 71" fill="none" xmlns="http://www.w3.org/2000/svg">
<g clip-path="url(#clip0_7_580)">
<path d="M37.1 68.9001C39 66.8601 44.93 60.5001 44.93 60.5001L48.93 56.2101C49.1637 56.0293 49.3293 55.7748 49.4001 55.488C49.4709 55.2012 49.4427 54.8989 49.32 54.6301C49.1818 54.368 48.9606 54.159 48.691 54.036C48.4214 53.9129 48.1186 53.8827 47.83 53.9501L46.45 54.0501L46.78 53.3901L49.37 48.3901C49.95 47.2701 49.43 46.3901 48.19 46.3901C45.19 46.3901 42.19 46.3901 39.19 46.3901C38.8893 46.3671 38.589 46.4411 38.3334 46.6013C38.0779 46.7615 37.8804 46.9994 37.77 47.2801C36.11 50.7001 34.44 54.1101 32.77 57.5301C32.6102 57.7291 32.5163 57.9728 32.5012 58.2275C32.486 58.4822 32.5505 58.7353 32.6857 58.9518C32.8208 59.1682 33.0199 59.3373 33.2554 59.4355C33.4909 59.5338 33.7511 59.5563 34 59.5001H37.6C37.41 60.1101 37.25 60.6801 37.04 61.2201L36 64.5001C35.61 65.7301 35.19 66.8401 34.91 67.9901C34.8791 68.1981 34.8934 68.4103 34.9521 68.6123C35.0108 68.8142 35.1124 69.0011 35.25 69.1601C35.6058 69.388 36.0318 69.4803 36.45 69.4201C36.65 69.4101 36.9 69.1201 37.1 68.9001Z" fill="#F4B13E"/>
<path d="M57.8 40.1901H9.08C7.94961 40.1222 6.85345 39.7764 5.88878 39.1833C4.92411 38.5902 4.12075 37.7681 3.55 36.7901C2.64963 35.3724 2.16391 33.731 2.14776 32.0517C2.1316 30.3723 2.58566 28.7219 3.45858 27.2872C4.33151 25.8524 5.58847 24.6905 7.08731 23.9329C8.58615 23.1753 10.2671 22.8521 11.94 23.0001C13.4 23.0801 13.71 22.5301 13.94 21.3001C14.6494 16.6381 16.8036 12.3163 20.0993 8.94354C23.3949 5.57077 27.6657 3.31709 32.31 2.50006H32.42C37.619 1.77301 42.9072 2.91783 47.34 5.73006C47.78 6.00006 48.21 6.30006 48.65 6.62006C51.0963 8.53046 53.1362 10.9104 54.65 13.6201L55.36 14.8301" fill="#89C1EB"/>
<path d="M34.58 27.72C34.8534 25.7225 35.74 23.859 37.1173 22.3867C38.4947 20.9143 40.2951 19.9057 42.27 19.5C42.8979 19.3966 43.5338 19.3498 44.17 19.36C46.6642 19.3538 49.0671 20.2977 50.89 22C52.182 23.2219 53.1068 24.7805 53.56 26.5" fill="#89C1EB"/>
<path d="M47.74 19.95C50.56 15.54 57.04 13.95 62.22 15C64.517 15.4328 66.634 16.5368 68.3036 18.1726C69.9732 19.8084 71.1203 21.9024 71.6 24.19C72.26 27.09 72.47 28.19 74.68 29.75C77.82 31.96 77.6 36.9 75.06 39.24C74.3763 39.8215 73.5169 40.1561 72.62 40.19H55.77" fill="#89C1EB"/>
<path d="M37.1 68.9001C39 66.8601 44.93 60.5001 44.93 60.5001L48.93 56.2101C49.1637 56.0293 49.3293 55.7748 49.4001 55.488C49.4709 55.2012 49.4427 54.8989 49.32 54.6301C49.1818 54.368 48.9606 54.159 48.691 54.036C48.4214 53.9129 48.1186 53.8827 47.83 53.9501L46.45 54.0501L46.78 53.3901L49.37 48.3901C49.95 47.2701 49.43 46.3901 48.19 46.3901C45.19 46.3901 42.19 46.3901 39.19 46.3901C38.8893 46.3671 38.589 46.4411 38.3334 46.6013C38.0779 46.7615 37.8804 46.9994 37.77 47.2801C36.11 50.7001 34.44 54.1101 32.77 57.5301C32.6102 57.7291 32.5163 57.9728 32.5012 58.2275C32.486 58.4822 32.5505 58.7353 32.6857 58.9518C32.8208 59.1682 33.0199 59.3373 33.2554 59.4355C33.4909 59.5338 33.7511 59.5563 34 59.5001H37.6C37.41 60.1101 37.25 60.6801 37.04 61.2201L36 64.5001C35.61 65.7301 35.19 66.8401 34.91 67.9901C34.8791 68.1981 34.8934 68.4103 34.9521 68.6123C35.0108 68.8142 35.1124 69.0011 35.25 69.1601C35.6058 69.388 36.0318 69.4803 36.45 69.4201C36.65 69.4101 36.9 69.1201 37.1 68.9001Z" stroke="white" stroke-width="3" stroke-miterlimit="10"/>
<path d="M58.22 40.22H9C7.86364 40.1536 6.76063 39.8111 5.78655 39.2221C4.81247 38.6331 3.99672 37.8155 3.41 36.84C2.56154 35.5055 2.0797 33.971 2.01299 32.391C1.94628 30.811 2.29706 29.2413 3.03 27.84C3.89717 26.2858 5.19432 25.0147 6.76585 24.1793C8.33739 23.3439 10.1166 22.9795 11.89 23.13C13.37 23.21 13.68 22.67 13.89 21.44C14.6411 16.771 16.838 12.4552 20.1711 9.1005C23.5043 5.74579 27.8059 3.52121 32.47 2.74005H32.59C37.8305 2.01057 43.1611 3.13541 47.66 5.92005C48.1 6.19338 48.54 6.49338 48.98 6.82005C51.4575 8.69241 53.535 11.0419 55.09 13.73L55.8 14.93" stroke="white" stroke-width="4" stroke-miterlimit="10"/>
<path d="M34.77 27.81C35.0508 25.8046 35.9503 23.9368 37.3431 22.467C38.7359 20.9971 40.5526 19.9984 42.54 19.61C43.1754 19.5163 43.818 19.4795 44.46 19.5C46.9712 19.4944 49.3935 20.4291 51.25 22.12C52.542 23.3413 53.4726 24.8947 53.94 26.61" stroke="white" stroke-width="4" stroke-miterlimit="10"/>
<path d="M48.06 20.0701C50.91 15.6901 57.46 14.0701 62.69 15.1501C64.9965 15.5676 67.1273 16.6598 68.813 18.2885C70.4986 19.9173 71.6634 22.0093 72.16 24.3001C72.83 27.1901 73.04 28.3001 75.27 29.8301C78.45 32.0301 78.27 36.9501 75.66 39.2701C74.9683 39.8578 74.0973 40.1928 73.19 40.2201H70" stroke="white" stroke-width="4" stroke-miterlimit="10"/>
<path d="M61.67 40.2201H66.77" stroke="white" stroke-width="4" stroke-miterlimit="10"/>
</g>
<defs>
<clipPath id="clip0_7_580">
<rect width="79.62" height="70.44" fill="white" transform="translate(0 0.5)"/>
</clipPath>
</defs>
</svg>
