<svg width="102" height="101" viewBox="0 0 102 101" fill="none" xmlns="http://www.w3.org/2000/svg">
<g clip-path="url(#clip0_7_610)">
<path d="M59.25 98.93C61.17 96.93 67.08 90.51 67.08 90.51C68.44 89.04 69.75 87.62 71.08 86.21C71.3143 86.032 71.4807 85.7793 71.5517 85.4937C71.6226 85.2082 71.5938 84.9069 71.47 84.64C71.3343 84.3799 71.117 84.1716 70.8514 84.0469C70.5859 83.9223 70.2868 83.8882 70 83.95C69.57 83.95 69.14 84.02 68.62 84.06C68.76 83.78 68.85 83.58 68.95 83.39L71.54 78.39C72.12 77.26 71.6 76.39 70.36 76.39C67.36 76.39 64.36 76.39 61.41 76.39C61.1092 76.3669 60.809 76.4409 60.5534 76.6011C60.2978 76.7613 60.1004 76.9993 59.99 77.28C58.33 80.69 56.66 84.11 54.99 87.52C54.8386 87.7169 54.7499 87.9547 54.7352 88.2026C54.7206 88.4506 54.7808 88.6972 54.9079 88.9105C55.0351 89.1239 55.2233 89.2941 55.4484 89.3992C55.6734 89.5043 55.9248 89.5394 56.17 89.5H59.77C59.58 90.11 59.42 90.67 59.21 91.22L58.11 94.5C57.71 95.72 57.29 96.84 57.01 97.98C56.9777 98.188 56.9914 98.4006 57.0502 98.6027C57.1089 98.8049 57.2113 98.9917 57.35 99.15C57.7049 99.3806 58.1306 99.4763 58.55 99.42C58.8 99.44 59.05 99.15 59.25 98.93Z" fill="#F4B13E"/>
<path d="M35.74 15.08C31.3888 15.08 27.1353 16.3702 23.5175 18.7876C19.8996 21.205 17.0798 24.6409 15.4147 28.6609C13.7495 32.6809 13.3138 37.1044 14.1627 41.3719C15.0116 45.6395 17.1069 49.5596 20.1837 52.6363C23.2604 55.7131 27.1804 57.8084 31.448 58.6572C35.7156 59.5061 40.1391 59.0704 44.159 57.4053C48.179 55.7402 51.6149 52.9204 54.0323 49.3025C56.4497 45.6846 57.74 41.4311 57.74 37.08C57.74 31.2452 55.4221 25.6494 51.2963 21.5236C47.1705 17.3978 41.5748 15.08 35.74 15.08Z" fill="#F4B13E"/>
<path d="M81.39 69.64H35C33.9231 69.5742 32.8789 69.2441 31.9598 68.6791C31.0407 68.114 30.2748 67.3312 29.73 66.4C28.8628 65.0515 28.3927 63.4861 28.3736 61.883C28.3544 60.2798 28.7869 58.7037 29.6215 57.3348C30.4562 55.966 31.6593 54.8597 33.0933 54.1426C34.5272 53.4255 36.1341 53.1266 37.73 53.28C39.13 53.35 39.42 52.83 39.59 51.65C40.2758 47.2141 42.3364 43.1054 45.4814 39.9029C48.6265 36.7005 52.6973 34.5658 57.12 33.8H57.23C62.1766 33.0983 67.2114 34.1833 71.43 36.86C71.85 37.11 72.26 37.4 72.68 37.71C75.0182 39.5079 76.9732 41.7553 78.43 44.32L79.1 45.5" fill="#89C1EB"/>
<path d="M59.29 57.77C59.5442 55.8646 60.3858 54.0857 61.6976 52.6807C63.0095 51.2756 64.7265 50.3142 66.61 49.93C67.2082 49.8313 67.8138 49.7845 68.42 49.79C70.7935 49.7895 73.0796 50.6861 74.82 52.3C76.047 53.47 76.9232 54.9591 77.35 56.6" fill="#89C1EB"/>
<path d="M71.81 50.37C74.5 46.17 80.67 44.63 85.6 45.66C87.7847 46.0747 89.7976 47.127 91.3851 48.6841C92.9725 50.2413 94.0633 52.2337 94.52 54.41C95.15 57.17 95.35 58.22 97.45 59.7C100.45 61.8 100.23 66.5 97.81 68.7C97.1604 69.2532 96.3427 69.5704 95.49 69.6H79.49" fill="#89C1EB"/>
<path d="M59.87 98.8C61.78 96.8 67.7 90.38 67.7 90.38C69.06 88.91 70.37 87.49 71.7 86.08C71.9348 85.9 72.0999 85.6442 72.1674 85.3562C72.2348 85.0681 72.2004 84.7656 72.07 84.5C71.9351 84.2368 71.7164 84.0261 71.4484 83.9012C71.1803 83.7762 70.8783 83.7441 70.59 83.81C70.16 83.86 69.72 83.88 69.21 83.92L69.54 83.25C70.4 81.59 71.27 79.94 72.12 78.25C72.7 77.12 72.19 76.25 70.94 76.25C67.94 76.25 64.94 76.25 62 76.25C61.6981 76.2279 61.397 76.3022 61.1401 76.4621C60.8831 76.6221 60.6835 76.8594 60.57 77.14C58.92 80.56 57.25 83.97 55.57 87.39C55.4336 87.5864 55.3573 87.8183 55.3506 88.0573C55.3439 88.2963 55.407 88.5321 55.5322 88.7358C55.6574 88.9396 55.8393 89.1024 56.0556 89.2043C56.2719 89.3063 56.5132 89.343 56.75 89.31H60.36C60.17 89.92 60 90.48 59.8 91.03L58.69 94.37C58.3 95.59 57.88 96.71 57.6 97.85C57.5662 98.069 57.5848 98.2928 57.6543 98.5032C57.7239 98.7135 57.8423 98.9044 58 99.06C58.3583 99.2913 58.7874 99.387 59.21 99.33C59.41 99.31 59.67 99.02 59.87 98.8Z" stroke="white" stroke-width="3" stroke-miterlimit="10"/>
<path d="M86.22 90.12L80.02 95.99" stroke="white" stroke-width="3" stroke-miterlimit="10" stroke-linecap="round"/>
<path d="M44.01 90.12L37.81 95.99" stroke="white" stroke-width="3" stroke-miterlimit="10" stroke-linecap="round"/>
<path d="M86.22 77.33L80.02 83.21" stroke="white" stroke-width="3" stroke-miterlimit="10" stroke-linecap="round"/>
<path d="M44.01 77.33L37.81 83.21" stroke="white" stroke-width="3" stroke-miterlimit="10" stroke-linecap="round"/>
<path d="M56.42 28.27C55.0855 25.0277 52.9953 22.1513 50.3237 19.8806C47.6521 17.6099 44.4764 16.0106 41.0614 15.216C37.6464 14.4215 34.091 14.4546 30.6914 15.3128C27.2918 16.1709 24.1465 17.8292 21.5178 20.1494C18.889 22.4696 16.8529 25.3845 15.5791 28.6511C14.3053 31.9178 13.8307 35.4416 14.1949 38.9289C14.5591 42.4161 15.7515 45.7658 17.6728 48.6988C19.5941 51.6318 22.1886 54.0631 25.24 55.79" stroke="white" stroke-width="4" stroke-miterlimit="10"/>
<path d="M35.97 14.51V2.5" stroke="white" stroke-width="4" stroke-miterlimit="10" stroke-linecap="square"/>
<path d="M14.01 36.7H2" stroke="white" stroke-width="4" stroke-miterlimit="10" stroke-linecap="square"/>
<path d="M20.4 21.0601L11.9 12.5601" stroke="white" stroke-width="4" stroke-miterlimit="10" stroke-linecap="square"/>
<path d="M51.61 20.9L60.1 12.4" stroke="white" stroke-width="4" stroke-miterlimit="10" stroke-linecap="square"/>
<path d="M20.56 52.27L12.06 60.76" stroke="white" stroke-width="4" stroke-miterlimit="10" stroke-linecap="square"/>
<path d="M81.13 69.13H34.82C33.7496 69.0724 32.7098 68.7522 31.7925 68.1976C30.8751 67.643 30.1084 66.8711 29.56 65.95C28.758 64.6992 28.3022 63.2581 28.2389 61.7736C28.1757 60.2892 28.5073 58.8145 29.2 57.5C30.0144 56.0379 31.2337 54.842 32.7115 54.0561C34.1892 53.2703 35.8624 52.9278 37.53 53.07C38.93 53.14 39.22 52.63 39.39 51.47C40.0949 47.07 42.1645 43.0026 45.3065 39.8427C48.4485 36.6827 52.504 34.5899 56.9 33.86H57.01C61.9418 33.1777 66.9571 34.2387 71.19 36.86C71.6 37.12 72.02 37.4 72.43 37.7C74.7651 39.4612 76.7207 41.6753 78.18 44.21L78.85 45.34" stroke="white" stroke-width="4" stroke-miterlimit="10"/>
<path d="M59.06 57.5C59.3274 55.615 60.1748 53.86 61.4846 52.4784C62.7945 51.0969 64.502 50.1573 66.37 49.79C66.9682 49.6913 67.5738 49.6445 68.18 49.65C70.5436 49.647 72.8229 50.528 74.57 52.12C75.7826 53.2533 76.6583 54.7 77.1 56.3" stroke="white" stroke-width="4" stroke-miterlimit="10"/>
<path d="M71.57 50.17C74.25 46.04 80.41 44.5 85.34 45.5C87.5094 45.8987 89.5126 46.9296 91.0978 48.4633C92.6831 49.997 93.7797 51.965 94.25 54.12C94.88 56.83 95.08 57.87 97.18 59.32C100.18 61.39 99.96 66.02 97.54 68.21C96.8871 68.7562 96.0708 69.0694 95.22 69.1H92.22" stroke="white" stroke-width="4" stroke-miterlimit="10"/>
<path d="M84.38 69.13H89.18" stroke="white" stroke-width="4" stroke-miterlimit="10"/>
</g>
<defs>
<clipPath id="clip0_7_610">
<rect width="101.39" height="100.33" fill="white" transform="translate(0 0.5)"/>
</clipPath>
</defs>
</svg>
