<svg width="96" height="90" viewBox="0 0 96 90" fill="none" xmlns="http://www.w3.org/2000/svg">
<g clip-path="url(#clip0_7_634)">
<path d="M23.9 4.10007C11.1 5.60007 1.9 17.0001 3.1 29.9001C4.3 42.7001 15.8 52.0001 28.5 50.6001C31.5 50.2001 34.2 49.4001 37 47.9001C35.4 46.8001 34 45.6001 32.7 44.2001C28.2 40.0001 25.1 34.6001 24.1 28.5001C23 21.1001 25 14.0001 27.3 9.10007C28.1 7.50007 28.9 5.70007 29.9 4.20007C28 3.80007 25.9 3.80007 23.9 4.10007Z" fill="#E7D279"/>
<path d="M23.9 4.10007C11.1 5.60007 1.9 17.0001 3.1 29.9001C4.3 42.7001 15.8 52.0001 28.5 50.6001C31.5 50.2001 34.2 49.4001 37 47.9001C35.4 46.8001 34 45.6001 32.7 44.2001C28.2 40.0001 25.1 34.6001 24.1 28.5001C23 21.1001 25 14.0001 27.3 9.10007C28.1 7.50007 28.9 5.70007 29.9 4.20007C28 3.80007 25.9 3.80007 23.9 4.10007Z" stroke="white" stroke-width="3" stroke-miterlimit="10"/>
<path d="M53.6 88.9C55.5 86.9 61.4 80.5 61.4 80.5C62.8 79 64.1 77.6001 65.4 76.2001C65.9 75.8001 66.1 75.2 65.8 74.6C65.5 74.1 64.9 73.8 64.3 73.9C63.9 73.9 63.4 74 62.9 74C63 73.7 63.1 73.5 63.2 73.3C64.1 71.6 64.9 70 65.8 68.3C66.4 67.2 65.9 66.3 64.6 66.3C61.6 66.3 58.6 66.3 55.7 66.3C55.1 66.3 54.5 66.6001 54.3 67.2001C52.6 70.6001 51 74 49.3 77.4C48.9 78 49 78.7001 49.6 79.1001C49.9 79.3001 50.2 79.4 50.5 79.3H54.1C53.9 79.9 53.8 80.5 53.5 81L52.4 84.3C52 85.5 51.6 86.6 51.3 87.8C51.2 88.2 51.3 88.7 51.6 89C52 89.2 52.4 89.3 52.8 89.3C53.1 89.4 53.4 89.1 53.6 88.9Z" fill="#F4B13E"/>
<path d="M74.7 61.7999H25.8C23.5 61.5999 21.4 60.3999 20.2 58.3999C17.5 54.1999 18.7 48.6999 22.9 45.9999C24.6 44.8999 26.6 44.3999 28.7 44.5999C30.2 44.6999 30.5 44.0999 30.7 42.8999C32.2 33.2999 39.6 25.7999 49.1 24.0999H49.2C54.4 23.3999 59.7 24.4999 64.2 27.2999C64.6 27.5999 65.1 27.8999 65.5 28.1999C68 30.0999 70 32.4999 71.6 35.1999L72.3 36.3999" fill="#89C1EB"/>
<path d="M51.4 49.3001C52 45.2001 55.1 41.9001 59.1 41.0001C59.7 40.9001 60.4 40.8001 61 40.9001C63.5 40.9001 66 41.8001 67.8 43.6001C69.1 44.8001 70 46.4001 70.5 48.1001" fill="#89C1EB"/>
<path d="M64.6 41.5002C67.4 37.1002 73.9 35.4002 79.1 36.5002C83.8 37.4002 87.6 41.1002 88.5 45.8002C89.2 48.7002 89.4 49.8002 91.6 51.4002C94.7 53.6002 94.5 58.6002 92 60.9002C91.3 61.5002 90.5 61.9002 89.5 61.9002H72.6" fill="#89C1EB"/>
<path d="M54.2 88.6C56.1 86.6 62 80.2 62 80.2C63.4 78.7 64.7 77.3 66 75.9C66.5 75.5 66.6 74.9 66.4 74.3C66.1 73.8 65.5 73.5 64.9 73.6C64.5 73.6 64 73.7 63.5 73.7L63.8 73C64.7 71.3 65.5 69.7 66.4 68C67 66.9 66.5 66 65.2 66C62.2 66 59.2 66 56.3 66C55.7 66 55.1 66.3 54.9 66.9C53.3 70.3 51.6 73.7 49.9 77.2C49.5 77.8 49.6 78.5 50.2 78.9C50.5 79.1 50.8 79.2 51.1 79.1H54.7C54.5 79.7 54.3 80.3 54.1 80.8L53 84.1C52.6 85.3 52.2 86.4 51.9 87.6C51.8 88 51.9 88.5 52.2 88.8C52.6 89 53 89.1 53.4 89.1C53.7 89.1 54 88.8 54.2 88.6Z" stroke="white" stroke-width="2" stroke-miterlimit="10"/>
<path d="M80.5 79.9001L74.3 85.8001" stroke="white" stroke-width="3" stroke-miterlimit="10" stroke-linecap="round"/>
<path d="M38.3 79.9001L32.1 85.8001" stroke="white" stroke-width="3" stroke-miterlimit="10" stroke-linecap="round"/>
<path d="M80.5 67.1001L74.3 73.0001" stroke="white" stroke-width="3" stroke-miterlimit="10" stroke-linecap="round"/>
<path d="M38.3 67.1001L32.1 73.0001" stroke="white" stroke-width="3" stroke-miterlimit="10" stroke-linecap="round"/>
<path d="M74.3 61.7H25.1C22.8 61.6 20.7 60.3 19.5 58.3C17.8 55.6 17.6 52.1 19.1 49.3C20.9 46.1 24.3 44.3 27.9 44.6C29.4 44.7 29.7 44.1 29.9 42.9C31.4 33.3 38.9 25.8 48.5 24.2H48.6C53.8 23.5 59.2 24.6 63.7 27.4C64.1 27.7 64.6 28 65 28.3C67.5 30.2 69.6 32.5 71.1 35.2L71.8 36.4" stroke="white" stroke-width="4" stroke-miterlimit="10"/>
<path d="M50.9 49.3002C51.5 45.2002 54.6 41.9002 58.7 41.1002C59.3 41.0002 60 40.9002 60.6 41.0002C63.1 41.0002 65.5 41.9002 67.4 43.6002C68.7 44.8002 69.6 46.4002 70.1 48.1002" stroke="white" stroke-width="4" stroke-miterlimit="10"/>
<path d="M64.1 41.5002C67 37.1002 73.5 35.5002 78.7 36.6002C83.4 37.5002 87.1 41.1002 88.2 45.8002C88.9 48.7002 89.1 49.8002 91.3 51.3002C94.5 53.5002 94.3 58.4002 91.7 60.7002C91 61.3002 90.1 61.6002 89.2 61.6002H86" stroke="white" stroke-width="4" stroke-miterlimit="10"/>
<path d="M77.7 59.7H82.8" stroke="white" stroke-width="4" stroke-miterlimit="10"/>
</g>
<defs>
<clipPath id="clip0_7_634">
<rect width="95.9" height="88.8" fill="white" transform="translate(0 0.5)"/>
</clipPath>
</defs>
</svg>
