<svg width="80" height="72" viewBox="0 0 80 72" fill="none" xmlns="http://www.w3.org/2000/svg">
<g clip-path="url(#clip0_7_593)">
<path d="M37.1 69.13C39.02 67.13 44.93 60.71 44.93 60.71C46.29 59.24 47.6 57.82 48.93 56.41C49.1643 56.232 49.3307 55.9793 49.4017 55.6937C49.4726 55.4082 49.4438 55.1069 49.32 54.84C49.1834 54.576 48.9628 54.365 48.6931 54.24C48.4233 54.1151 48.1197 54.0835 47.83 54.15C47.4 54.2 46.97 54.22 46.45 54.26C46.59 53.98 46.68 53.78 46.78 53.59L49.37 48.59C49.95 47.46 49.43 46.59 48.19 46.59C45.19 46.59 42.19 46.59 39.19 46.59C38.8904 46.5662 38.5911 46.6388 38.3356 46.7971C38.0802 46.9554 37.882 47.1911 37.77 47.47C36.11 50.89 34.44 54.31 32.77 57.72C32.6199 57.9205 32.5341 58.1618 32.5239 58.4121C32.5136 58.6624 32.5794 58.9099 32.7125 59.122C32.8457 59.3342 33.0399 59.501 33.2697 59.6006C33.4996 59.7002 33.7542 59.7279 34 59.68H37.6C37.41 60.29 37.25 60.85 37.04 61.4L36 64.74C35.61 65.96 35.19 67.08 34.91 68.22C34.8777 68.428 34.8914 68.6406 34.9502 68.8427C35.0089 69.0449 35.1113 69.2317 35.25 69.39C35.6049 69.6206 36.0306 69.7163 36.45 69.66C36.65 69.64 36.9 69.35 37.1 69.13Z" fill="#F4B13E"/>
<path d="M57.8 40.42H9.08C7.94961 40.3522 6.85345 40.0063 5.88878 39.4132C4.92411 38.8201 4.12075 37.9981 3.55 37.02C2.64963 35.6023 2.16391 33.961 2.14776 32.2816C2.1316 30.6022 2.58566 28.9519 3.45858 27.5171C4.33151 26.0823 5.58847 24.9205 7.08731 24.1628C8.58615 23.4052 10.2671 23.0821 11.94 23.23C13.4 23.3 13.71 22.76 13.94 21.52C14.6571 16.8653 16.8147 12.5524 20.1098 9.18744C23.4048 5.82248 27.6714 3.57468 32.31 2.76H32.42C37.6139 2.03078 42.8984 3.16065 47.34 5.95C47.78 6.22 48.21 6.53 48.65 6.85C51.0985 8.75805 53.1389 11.1385 54.65 13.85L55.36 15.06" fill="#89C1EB"/>
<path d="M34.58 27.9401C34.8501 25.9402 35.7353 24.0738 37.113 22.5992C38.4908 21.1247 40.293 20.1151 42.27 19.7101C42.8982 19.6086 43.5336 19.5584 44.17 19.5601C46.6625 19.5628 49.0622 20.5055 50.89 22.2001C52.1839 23.4284 53.1087 24.994 53.56 26.7201" fill="#89C1EB"/>
<path d="M47.74 20.17C50.56 15.77 57.04 14.17 62.22 15.17C64.5167 15.6072 66.6327 16.7139 68.3018 18.351C69.9709 19.988 71.1184 22.0822 71.6 24.37C72.26 27.27 72.47 28.37 74.68 29.93C77.82 32.14 77.6 37.08 75.06 39.41C74.3818 40.0005 73.519 40.3364 72.62 40.36H55.77" fill="#89C1EB"/>
<path d="M37.1 69.3801C39.02 67.3801 44.93 60.9601 44.93 60.9601L48.93 56.6701C49.1636 56.4893 49.3293 56.2348 49.4001 55.948C49.4709 55.6612 49.4427 55.3588 49.32 55.0901C49.1818 54.8279 48.9606 54.619 48.691 54.496C48.4214 54.3729 48.1186 54.3427 47.83 54.4101L46.45 54.5101L46.78 53.8501L49.37 48.8501C49.95 47.7301 49.43 46.8501 48.19 46.8501C45.19 46.8501 42.19 46.8501 39.19 46.8501C38.8899 46.8231 38.5892 46.8943 38.333 47.053C38.0769 47.2117 37.8793 47.4493 37.77 47.7301C36.11 51.1501 34.44 54.5601 32.77 57.9801C32.6178 58.1796 32.5302 58.4208 32.5191 58.6715C32.5079 58.9221 32.5737 59.1702 32.7075 59.3824C32.8414 59.5946 33.0369 59.7608 33.268 59.8587C33.499 59.9566 33.7544 59.9815 34 59.9301H37.6C37.41 60.5401 37.25 61.1101 37.04 61.6501L36 64.9901C35.61 66.2201 35.19 67.3301 34.91 68.4801C34.8791 68.6881 34.8934 68.9003 34.9521 69.1023C35.0108 69.3042 35.1124 69.4911 35.25 69.6501C35.6058 69.878 36.0318 69.9703 36.45 69.9101C36.65 69.8901 36.9 69.6001 37.1 69.3801Z" stroke="white" stroke-width="3" stroke-miterlimit="10"/>
<path d="M58.22 40.22H9C7.86364 40.1536 6.76063 39.8111 5.78655 39.2221C4.81247 38.6331 3.99672 37.8155 3.41 36.84C2.56154 35.5055 2.0797 33.971 2.01299 32.391C1.94628 30.811 2.29706 29.2413 3.03 27.84C3.89717 26.2858 5.19432 25.0147 6.76585 24.1793C8.33739 23.3439 10.1166 22.9795 11.89 23.13C13.37 23.21 13.68 22.67 13.89 21.44C14.6411 16.771 16.838 12.4552 20.1711 9.1005C23.5043 5.74579 27.8059 3.52121 32.47 2.74005H32.59C37.8305 2.01057 43.1611 3.13541 47.66 5.92005C48.1 6.19338 48.54 6.49338 48.98 6.82005C51.4575 8.69241 53.535 11.0419 55.09 13.73L55.8 14.93" stroke="white" stroke-width="4" stroke-miterlimit="10"/>
<path d="M34.77 27.81C35.0508 25.8046 35.9503 23.9368 37.3431 22.467C38.7359 20.9971 40.5526 19.9984 42.54 19.61C43.1755 19.5163 43.818 19.4795 44.46 19.5C46.9712 19.4944 49.3935 20.4291 51.25 22.12C52.542 23.3413 53.4727 24.8947 53.94 26.61" stroke="white" stroke-width="4" stroke-miterlimit="10"/>
<path d="M48.06 20.0701C50.91 15.6901 57.46 14.0701 62.69 15.1501C64.9965 15.5676 67.1273 16.6598 68.813 18.2885C70.4986 19.9173 71.6634 22.0093 72.16 24.3001C72.83 27.1901 73.04 28.3001 75.27 29.8301C78.45 32.0301 78.27 36.9501 75.66 39.2701C74.9683 39.8578 74.0973 40.1928 73.19 40.2201H70" stroke="white" stroke-width="4" stroke-miterlimit="10"/>
<path d="M61.67 40.2201H66.77" stroke="white" stroke-width="4" stroke-miterlimit="10"/>
<path d="M63.46 60.7001L57.25 66.5801" stroke="white" stroke-width="3" stroke-miterlimit="10" stroke-linecap="round"/>
<path d="M21.24 60.7001L15.04 66.5801" stroke="white" stroke-width="3" stroke-miterlimit="10" stroke-linecap="round"/>
<path d="M63.46 47.91L57.25 53.79" stroke="white" stroke-width="3" stroke-miterlimit="10" stroke-linecap="round"/>
<path d="M21.24 47.91L15.04 53.79" stroke="white" stroke-width="3" stroke-miterlimit="10" stroke-linecap="round"/>
</g>
<defs>
<clipPath id="clip0_7_593">
<rect width="79.62" height="70.92" fill="white" transform="translate(0 0.5)"/>
</clipPath>
</defs>
</svg>
