<svg width="95" height="68" viewBox="0 0 95 68" fill="none" xmlns="http://www.w3.org/2000/svg">
<g clip-path="url(#clip0_7_654)">
<path d="M58.31 40.2401H9.59001C8.45962 40.1722 7.36346 39.8264 6.39879 39.2333C5.43412 38.6402 4.63076 37.8181 4.06001 36.8401C3.15964 35.4224 2.67392 33.781 2.65777 32.1017C2.64161 30.4223 3.09567 28.7719 3.96859 27.3372C4.84152 25.9024 6.09847 24.7405 7.59732 23.9829C9.09616 23.2253 10.7771 22.9022 12.45 23.0501C13.92 23.1201 14.22 22.5801 14.45 21.3401C15.1671 16.6854 17.3248 12.3725 20.6198 9.00751C23.9148 5.64255 28.1814 3.39475 32.82 2.58007H32.93C38.1239 1.85085 43.4084 2.98071 47.85 5.77007C48.29 6.04007 48.73 6.35007 49.16 6.67007C51.6085 8.57811 53.6489 10.9585 55.16 13.6701L55.87 14.8801" fill="#89C1EB"/>
<path d="M35.09 27.7701C35.3523 25.763 36.2341 23.8877 37.6125 22.4054C38.9908 20.923 40.7972 19.9075 42.78 19.5001C43.4082 19.3986 44.0436 19.3485 44.68 19.3501C47.1728 19.3509 49.5733 20.2939 51.4 21.9901C52.6923 23.2157 53.617 24.7776 54.07 26.5001" fill="#89C1EB"/>
<path d="M48.25 19.9901C51.07 15.5901 57.56 13.9901 62.73 15.0401C65.0267 15.4773 67.1427 16.5841 68.8118 18.2211C70.4809 19.8582 71.6284 21.9524 72.11 24.2401C72.77 27.1401 72.98 28.2401 75.19 29.8001C78.33 32.0101 78.11 36.9501 75.57 39.2801C74.8918 39.8707 74.029 40.2066 73.13 40.2301H56.28" fill="#89C1EB"/>
<path d="M58.7 53.5801C56.05 53.5801 53.4 53.5801 50.7 53.5801" stroke="white" stroke-width="3" stroke-miterlimit="10" stroke-linecap="round"/>
<path d="M50.75 48.29C52.18 48.29 53.62 48.29 55.06 48.29" stroke="white" stroke-width="3" stroke-miterlimit="10" stroke-linecap="round"/>
<path d="M61 48.3C69.34 48.3 77.6733 48.3 86 48.3C87.2344 48.3467 88.4608 48.0828 89.5668 47.5324C90.6727 46.9821 91.6228 46.1629 92.33 45.15C93.1914 43.9103 93.5403 42.3856 93.3036 40.8947C93.0669 39.4037 92.263 38.062 91.06 37.15C90.1995 36.5305 89.1458 36.2393 88.0893 36.3292C87.0329 36.4191 86.0434 36.8841 85.3 37.64C84.7079 38.2534 84.377 39.0726 84.377 39.925C84.377 40.7775 84.7079 41.5967 85.3 42.21C85.5125 42.4362 85.7676 42.6183 86.0506 42.7458C86.3336 42.8732 86.639 42.9436 86.9493 42.9529C87.2595 42.9622 87.5685 42.9102 87.8587 42.7999C88.1488 42.6896 88.4143 42.5231 88.64 42.31" stroke="white" stroke-width="3" stroke-miterlimit="10" stroke-linecap="round"/>
<path d="M75.85 59.6501C75.4678 59.2569 74.9661 59.0014 74.4233 58.9236C73.8805 58.8458 73.3272 58.9501 72.85 59.2201C72.3576 59.5506 71.9649 60.0095 71.7146 60.5471C71.4643 61.0847 71.3659 61.6806 71.43 62.2701C71.5681 63.0949 71.967 63.8537 72.5682 64.4351C73.1693 65.0164 73.941 65.3897 74.77 65.5001C75.9664 65.6813 77.1872 65.4067 78.1909 64.7308C79.1946 64.0549 79.908 63.0269 80.19 61.8501C80.5972 60.4983 80.5204 59.0467 79.9728 57.7454C79.4253 56.444 78.4412 55.3742 77.19 54.7201C75.9561 53.9962 74.5506 53.6163 73.12 53.6201H64.4" stroke="white" stroke-width="3" stroke-miterlimit="10" stroke-linecap="round"/>
<path d="M58.22 40.2202H9C7.86364 40.1537 6.76063 39.8112 5.78655 39.2222C4.81247 38.6332 3.99672 37.8156 3.41 36.8402C2.56154 35.5056 2.0797 33.9711 2.01299 32.3911C1.94628 30.8111 2.29706 29.2415 3.03 27.8402C3.89717 26.2859 5.19432 25.0148 6.76585 24.1794C8.33739 23.344 10.1166 22.9797 11.89 23.1302C13.37 23.2102 13.68 22.6702 13.89 21.4402C14.6411 16.7711 16.838 12.4553 20.1711 9.10062C23.5043 5.74592 27.8059 3.52133 32.47 2.74017H32.59C37.8305 2.01069 43.1611 3.13554 47.66 5.92017C48.1 6.1935 48.54 6.4935 48.98 6.82017C51.4575 8.69253 53.535 11.0421 55.09 13.7302L55.8 14.9302" stroke="white" stroke-width="4" stroke-miterlimit="10"/>
<path d="M34.77 27.8102C35.0508 25.8048 35.9503 23.937 37.3431 22.4671C38.7359 20.9972 40.5526 19.9985 42.54 19.6102C43.1754 19.5164 43.818 19.4796 44.46 19.5002C46.9712 19.4945 49.3935 20.4292 51.25 22.1202C52.542 23.3414 53.4726 24.8949 53.94 26.6102" stroke="white" stroke-width="4" stroke-miterlimit="10"/>
<path d="M48.06 20.0702C50.91 15.6902 57.46 14.0702 62.69 15.1502C64.9965 15.5677 67.1273 16.66 68.813 18.2887C70.4986 19.9174 71.6634 22.0094 72.16 24.3002C72.83 27.1902 73.04 28.3002 75.27 29.8302C78.45 32.0302 78.27 36.9502 75.66 39.2702C74.9683 39.8579 74.0973 40.1929 73.19 40.2202H70" stroke="white" stroke-width="4" stroke-miterlimit="10"/>
<path d="M61.67 40.22H66.77" stroke="white" stroke-width="4" stroke-miterlimit="10"/>
</g>
<defs>
<clipPath id="clip0_7_654">
<rect width="94.85" height="66.53" fill="white" transform="translate(0 0.5)"/>
</clipPath>
</defs>
</svg>
